<?xml version="1.0" standalone="yes"?>
<svg width="449" height="556">
<path style="fill:#000000; stroke:none;" d="M0 0L0 556L193 556C193.059 548.999 196.629 542.882 196.715 536C196.789 530.131 193.413 524.557 193.448 519C193.474 514.936 197.215 512.119 197.012 508C196.66 500.84 190.748 489.55 199 485L200 488L203 487L201 491L205 490L208.454 499.378L221.999 495.181L252 489C257.374 485.893 275.09 484.252 281 487C284.377 484.244 285.907 486.972 289 489L288 484L292 484L289.899 356.715L288.09 317L285 297C279.919 314.185 281.83 334.585 265 346.351C252.036 355.415 226.275 336.882 226.653 322C226.917 311.589 241.424 301.918 247 294C242.46 295.437 238.622 298.476 234 299.684C222.04 302.811 197.543 299.484 189.742 288.787C186.826 284.788 188.791 279.388 186.865 275C184.836 270.38 182.456 267.187 182 262C168.161 264.036 154.974 269.099 141 270.844C135.559 271.524 129.098 271.619 128 278C123.451 272.301 121.827 259.481 130.213 255.589C138.966 251.526 151.6 252.35 161 250.671C165.261 249.909 168.768 247.149 173 246.34C177.102 245.556 182.099 247.23 185.961 245.687C193.111 242.83 196.695 233.406 204 230C203.476 226.908 202.892 222.289 200.412 220.085C197.435 217.439 186.692 214.36 189.256 208.318C190.608 205.133 195.524 206.176 198 206.9C204.208 208.717 211.862 212.004 216.307 204.895C219.058 200.495 215.963 193.65 215.3 189C214.817 185.607 215.761 181.368 213.972 178.3C211.214 173.571 204.323 169.847 200 166.63C187.528 157.349 174.59 148.35 159 146L159 145C165.932 140.994 168.645 128.485 177.941 127.967C182.63 127.705 183.874 138.726 186.108 141.981C189.687 147.193 195.053 146.864 199.985 149.995C204.465 152.838 206.462 157.138 212 158C211.951 152.506 209.424 148.262 208.814 143C207.304 129.974 211.129 121.621 218.344 111C220.563 107.733 223.283 101.794 227.104 100.213C230.994 98.6034 235.107 102.441 239 102.613C248.594 103.037 258.184 101.962 268 103L265.75 110.675L282.304 136L284.603 156.815L295 163C293.411 150.434 292.338 138.024 288.06 126C286.647 122.028 282.036 114.315 284.233 110.133C287.221 104.447 306.864 100.536 313 100C312.528 90.7712 321.122 91.4727 325.393 84.9568C327.864 81.1857 325.675 76.987 325 73L361 76.8958L386 76L386 64C390.3 65.1761 402.292 67.9838 399 74C406.031 98.6529 400.186 113.525 389.259 136C385.31 144.122 381.917 154.506 374.895 160.61C366.537 167.874 353.39 172.712 343 176C346.032 181.446 351.994 194.231 358.184 196.306C367.329 199.372 396.768 178.421 391 203C396.033 206.095 406.21 211.77 405.748 218.91C405.423 223.952 398.43 231.413 396 236C386.23 232.439 380.402 236.633 371 238.625C360.671 240.813 348.551 241.782 338 242C344.974 258.58 370.705 265.909 386 273.691C391.54 276.51 401.898 278.109 403.682 285.015C405.962 293.841 400.158 312.763 388.039 310.944C379.439 309.652 373.036 293.934 367.532 288.329C352.389 272.906 323.438 273.949 315 250C297.123 255.15 303.098 274.494 302.995 289C302.955 294.765 301.091 300.253 301.019 306C300.644 335.597 305.306 365.522 305.657 395C306.009 424.624 304 454.346 304 484L309 484L309 489L310 489C311.574 483.868 314.665 484.885 317 489L318 489L324 485L327 491C327.671 486.792 329.431 484.936 333 488L349 487L350 491L361 490L360 494L363 491L372 491C372.71 494.296 375.23 494.171 377.5 491.583C384.188 483.96 381.242 473.231 395 473L394 476C404.251 481.481 401.925 506.647 400.392 517C399.844 520.703 397.093 524.165 397.524 527.985C398.556 537.13 403.34 546.082 404 556L449 556L449 0L0 0z"/>
<path style="fill:#2e3e24; stroke:none;" d="M386 64L386 78C370.983 73.5612 360.485 82.3178 347 85L347 86C354.114 90.7996 362.038 94.6733 363 104L364 104L364 101L370 109L371 109L368 92C372.41 93.4083 379.218 94.2263 382 90C385.129 98.6662 379.489 105.327 375.653 113C371.26 121.786 367.158 132.803 361.162 140.545C354.601 149.015 347.427 153.307 344 164C338.191 160.343 333.971 166.685 333 172C336.163 172.902 339.639 174.977 343 174.617C350.752 173.786 362.154 165.987 369 162.108C371.178 160.874 374.497 160.833 376.332 159.231C380.97 155.183 383.933 144.635 386.361 139C390.624 129.105 396.35 120.431 399.652 110C404.1 95.9473 403.041 71.8873 387 66L389 65L386 64z"/>
<path style="fill:#c9dab3; stroke:none;" d="M387 65L387 66L400 74C399.461 67.0582 393.163 65.5414 387 65z"/>
<path style="fill:#808476; stroke:none;" d="M400 70L400 74L401 74L400 70z"/>
<path style="fill:#818d71; stroke:none;" d="M325 73L329 81L331 73L325 73z"/>
<path style="fill:#9dba99; stroke:none;" d="M330 74L330 79L332 77L333 77L336 78L330 74z"/>
<path style="fill:#232322; stroke:none;" d="M332 74L332 75L344 75L332 74z"/>
<path style="fill:#6b7164; stroke:none;" d="M344 74L344 75L351 75L344 74z"/>
<path style="fill:#829c97; stroke:none;" d="M397 74L401 94L402 94C402.852 87.2191 403.493 78.2574 397 74z"/>
<path style="fill:#7a946b; stroke:none;" d="M333 75L333 76C338.796 79.9385 345.927 84.3635 349 75L333 75z"/>
<path style="fill:#bcd2a7; stroke:none;" d="M349 75L343 83C351.207 86.9259 356.296 80.2245 364 78L349 75z"/>
<path style="fill:#5e775f; stroke:none;" d="M364 77L364 78L386 78C381.567 72.1763 370.033 75.4392 364 77z"/>
<path style="fill:#64695b; stroke:none;" d="M355 76L355 77L358 77L355 76z"/>
<path style="fill:#6a8a51; stroke:none;" d="M332 77L331 84L334 83L339 93L347 91L348 95L355 94C350.667 86.8581 339.297 80.8997 332 77z"/>
<path style="fill:#d5dcda; stroke:none;" d="M335 78L335 79L356 93C352.254 86.8255 341.801 80.2549 335 78z"/>
<path style="fill:#b7c7a4; stroke:none;" d="M329 79L329 83L330 83L329 79z"/>
<path style="fill:#4b4e43; stroke:none;" d="M327 80L327 83L328 83L327 80z"/>
<path style="fill:#f2fdf2; stroke:none;" d="M328 82L322 95L329 121L330 121L331 96L332 96L332 99L333 99L328 82z"/>
<path style="fill:#e2f0d9; stroke:none;" d="M330 83L333 99L332 99L332 96L331 96L331 137L332 137L337 122L341 123L339 120L339 114L342 116C338.013 105.732 338.109 91.0802 330 83z"/>
<path style="fill:#8ca46e; stroke:none;" d="M333 83C331.826 89.5934 339.837 96.5341 346 97L346 93L339 93L333 83z"/>
<path style="fill:#b1c495; stroke:none;" d="M326 84C321.439 88.3241 310.496 91.7322 314 99L319 97L308 103C309.436 112.088 319.72 112.247 327 114L322 95C325.604 91.9513 327.957 88.7022 326 84z"/>
<path style="fill:#cbdeb8; stroke:none;" d="M335 89L342 116L339 114L339 120L341 123L337 122L331.917 135.015L332 155L333 155C333.966 150.324 337.525 148.91 339.491 144.896C343.485 136.742 343.781 126.876 348.525 119.054C351.168 114.697 357.669 111.032 358.589 105.83C360.109 97.2311 352.48 97.8103 347 98L347 107L346 107L335 89z"/>
<path style="fill:#1a2617; stroke:none;" d="M381 90C378.349 94.0418 372.357 92.5228 368 92L371 109L370 109L364 101C361.752 111.896 359.106 125.317 363 136L364 136C369.26 126.014 374.409 115.967 379.706 106C382.632 100.493 385.926 95.2583 381 90z"/>
<path style="fill:#a5b0ae; stroke:none;" d="M402 90L400 111L401 111C402.673 104.212 405.488 96.5607 402 90z"/>
<path style="fill:#a5bd8b; stroke:none;" d="M346 91L346 97L338 94L346 107L347 107L347 98L357 100L358 100L358 96L348 97L346 91z"/>
<path style="fill:#8daa69; stroke:none;" d="M356 92L348 97L358 96L359 107L360 107L363 104C362.707 98.3558 360.855 94.96 356 92z"/>
<path style="fill:#4d6a34; stroke:none;" d="M313 97C309.33 102.727 291.734 106.654 285 107L283 114L283 115L285 120C289.53 119.838 289.899 126.047 292.167 129C296.754 134.972 303.378 142.395 311 144L312 141L322 142C321.865 130.632 308.895 130.409 304 121L305 121L313 129C320.186 118.621 310.562 111.917 308 103L319 97L313 97z"/>
<path style="fill:#2f4233; stroke:none;" d="M209 130L210 130L210 127L211 127C212.229 131.778 217.184 136.344 214 141L214 142L222 157L217 137L218 137L225 148L228 146L227 138L224 141L222 131L230 129L238 131C236.943 123.992 232.613 115.996 230.456 109C229.376 105.499 226.467 102.621 230 100C225.545 98.5896 223.425 102.699 221.117 106.001C216.041 113.26 209.475 120.836 209 130z"/>
<path style="fill:#b1c8d2; stroke:none;" d="M227 100C227.747 104.727 229.88 111.372 234 114L231 100L227 100z"/>
<path style="fill:#373836; stroke:none;" d="M231.667 100.333L232.333 100.667L231.667 100.333z"/>
<path style="fill:#6b8276; stroke:none;" d="M230 101L235 113L236 113L235 108L238 110L241 107L243 104L230 101z"/>
<path style="fill:#495f4a; stroke:none;" d="M241 102L241 103L243 104L242 111L250.144 104.689L263 105L262 110L268 103L241 102z"/>
<path style="fill:#2f312f; stroke:none;" d="M252 102L252 103L256 103L252 102z"/>
<path style="fill:#2e302f; stroke:none;" d="M261 102L261 103L265 103L261 102z"/>
<path style="fill:#446030; stroke:none;" d="M361 103L353 135L359 134L360 139L361 139L361 107L363 108L361 103z"/>
<path style="fill:#6c7675; stroke:none;" d="M402.333 103.667L402.667 104.333L402.333 103.667z"/>
<path style="fill:#2f3c2c; stroke:none;" d="M246 119L247 119C250.079 114.772 253.747 111.767 259 111L263 120L264 120L264 114L267 115L262 110L263 105C249.867 104.964 246.041 104.033 246 119z"/>
<path style="fill:#c5d6e0; stroke:none;" d="M239 106L238 110L235 108C236.001 115.753 236.673 122.518 245 125L246 111L239 106z"/>
<path style="fill:#68874f; stroke:none;" d="M361 107L360 132L361 132L361 107z"/>
<path style="fill:#9ca67d; stroke:none;" d="M284 108L283 114L286 108L284 108z"/>
<path style="fill:#98b77a; stroke:none;" d="M357 108L339.491 143.957L333 155L332 155L332 140L331 140L331 162L344 145L345 137L348 139L349 124L351 125L357 108z"/>
<path style="fill:#808f86; stroke:none;" d="M245 109L245 111L247 111L247 109L245 109z"/>
<path style="fill:#36372f; stroke:none;" d="M283 110L283 113L284 113L283 110z"/>
<path style="fill:#718c72; stroke:none;" d="M399 110L377 158L378 158C384.68 147.125 390.886 135.654 396.135 124C397.992 119.878 401.319 114.232 399 110z"/>
<path style="fill:#202d20; stroke:none;" d="M242 134L232 130L241.548 142.615L241 156L234 155L226 146L234 162L237.997 164.764C249.224 172.784 231.304 168.242 228 168C230.103 172.472 238.135 176.938 236 182L236 183L241 187L235 184C240.002 190.462 250.173 194.141 258 196L258 197C247.348 194.47 235.193 189.283 230.138 179C227.009 172.634 226.724 165.446 224 159L220 164L208 165L215 181L216 181L217 179C220.103 182.551 224.402 185.059 227.006 189.039C228.737 191.686 229.33 195.891 232.394 197.4C244.396 203.316 257.006 202.43 265 215L271 214C272.218 206.112 279.283 205.52 283.397 199.815C286.309 195.775 286.267 185.609 285 181L294 181L294 180C287.072 173.365 296.68 170.781 294.338 164.302C293.026 160.673 287.045 160.372 285.029 156.815C282.358 152.104 284.08 141.735 283 136L281 137L276 130L277 134L274 133L274 154L275 154L278 142L279 142L279 177L280 177L281 170L282 170C282 175.585 282.866 181.554 279 186C280.134 191.007 279.46 194.129 274 195L276 187L275 187C271.8 194.532 270.839 202.633 264 208C261.373 192.547 255.348 176.157 251.125 161C248.314 150.909 244.676 139.678 250 130L247 131L254 120L255 123C260.051 121.636 262.308 125.358 263 130L264 130L266 119L271 124L264 114L264 120L263 120L259 111C245.917 111.95 246.515 124.716 242 134z"/>
<path style="fill:#7c985c; stroke:none;" d="M315 111L313 129L305 121L304 121C305.285 128.711 313.425 131.535 319 132C322.528 132.294 326.425 135.298 326 137L330 139L331 139L331 132L330 132L330 136L328 136C328 130.241 331.145 117.82 325.581 114.024C322.876 112.179 318.156 112 315 111z"/>
<path style="fill:#64894d; stroke:none;" d="M357 111L351 125L349 124L348 139L345 137L344 145L339.806 150.588L329 172L333 173C333.992 167.541 337.768 161.422 344 164L346 157L343 161L339 160L356 127L357 111z"/>
<path style="fill:#97abba; stroke:none;" d="M234 112L237 126L244 128L234 112z"/>
<path style="fill:#798b84; stroke:none;" d="M266 112L269 114L266 112z"/>
<path style="fill:#7b959b; stroke:none;" d="M231 113L232 117L233 117L231 113z"/>
<path style="fill:#516254; stroke:none;" d="M267 114L272 120L272 115L267 114z"/>
<path style="fill:#8fa9a5; stroke:none;" d="M271 116L273 120L274 119L271 116z"/>
<path style="fill:#6d858d; stroke:none;" d="M233 118L237 126L233 118z"/>
<path style="fill:#606c5c; stroke:none;" d="M245 118L245 129L246 129L245 118z"/>
<path style="fill:#131c10; stroke:none;" d="M266 119L264 130L263 130C262.629 125.006 260.339 121.101 255 123L255 120L254 120L247 131L250 130C244.979 136.981 247.552 145.125 248.92 153C252.189 171.823 259.081 189.608 264 208C271.395 204.158 272.683 194.295 275 187L276 187L274 195C279.812 194.547 280.517 191.191 279 186C283.454 182.609 282 175.083 282 170L281 170L280 177L279 177C279.59 164.088 282.649 154.793 279 142L278 142L275 154L274 154L276.608 139.17L272 124L269 124L268 119L266 119z"/>
<path style="fill:#b7cad2; stroke:none;" d="M273 119L275 122L275 119L273 119z"/>
<path style="fill:#849f64; stroke:none;" d="M286 119L292 142L293 142L293 138L294 138L301 151L321 160C316.055 150.071 290.661 145.223 294 130L286 119z"/>
<path style="fill:#323e31; stroke:none;" d="M270 120C271.126 125.485 271.415 131.66 277 134L276 130L278 130C276.458 125.489 274.777 121.473 270 120z"/>
<path style="fill:#7f9790; stroke:none;" d="M275 120L274 123L275 120z"/>
<path style="fill:#56635d; stroke:none;" d="M276 122L281 137L282 137L276 122z"/>
<path style="fill:#607a44; stroke:none;" d="M328 123L328 136L330 136L328 123z"/>
<path style="fill:#b7b690; stroke:none;" d="M329.333 123.667L329.667 124.333L329.333 123.667z"/>
<path style="fill:#6d818b; stroke:none;" d="M238 125L237 126L245 129L245 125L244 125L244 128L238 125z"/>
<path style="fill:#525953; stroke:none;" d="M163 143C168.112 144.19 170.32 140.778 171 136L174 137L181 128C172.648 125.112 165.015 136.2 163 143z"/>
<path style="fill:#262d22; stroke:none;" d="M210 127C205.957 138.322 211.74 146.928 212 158L220 157C219.913 152.878 218.2 142.9 214 142L214 141C218.304 137.175 212.728 130.476 210 127z"/>
<path style="fill:#b6b38a; stroke:none;" d="M330 127L330 132L331 132L330 127z"/>
<path style="fill:#a2ba78; stroke:none;" d="M354 127L349 140C359.175 146.927 342.532 152.735 339 160L343 161L360 140L352 137L352 136L355 136L355 135L354 127z"/>
<path style="fill:#c6d7e1; stroke:none;" d="M174 137L171 136L171 142L175 144L180 139L180 143L181 143L181 128L174 137z"/>
<path style="fill:#363a34; stroke:none;" d="M181 128L181 133L182 133L181 128z"/>
<path style="fill:#7a8d84; stroke:none;" d="M180 129C180.099 133.816 182.628 139.997 178 143L178 144L189 152L191 149L180 129z"/>
<path style="fill:#546e6b; stroke:none;" d="M230 129L222 131L224 141C228.507 137.639 228.344 133.07 235 136L230 129z"/>
<path style="fill:#485558; stroke:none;" d="M238 129L242 134L245 129L238 129z"/>
<path style="fill:#688646; stroke:none;" d="M292 131C297.7 144.822 308.025 147.436 317.867 156.464C322.12 160.365 321.164 165.545 327 168L330 151L330 137L322 135L322 142L312 141C311.899 147.264 322.857 148.304 328 149C319.221 150.878 307.494 145.402 301.109 139.535C297.553 136.268 297.042 132.097 292 131z"/>
<path style="fill:#cbc89c; stroke:none;" d="M318 132L318 133L327 136L327 135L318 132z"/>
<path style="fill:#7e9e5b; stroke:none;" d="M361 132L361 139L360 139L359 134L354 134L352 136L352 137L362 142L361 132z"/>
<path style="fill:#8a9fad; stroke:none;" d="M233 144L233 139L234 139L234 143C243.867 133.215 219.906 131.983 229.469 141.861C230.406 142.829 231.851 143.385 233 144z"/>
<path style="fill:#a3ad7a; stroke:none;" d="M297 134C300.934 145.332 317.194 149.529 328 150L328 149C315.554 146.398 306.687 142.133 297 134z"/>
<path style="fill:#565e39; stroke:none;" d="M362 134L362 139L363 139L362 134z"/>
<path style="fill:#455c5a; stroke:none;" d="M217 137L220 149L221 149L217 137z"/>
<path style="fill:#2e3c36; stroke:none;" d="M237 138L238 152L235 149L233 151L229 147L234 155L241 156C242.23 149.072 244.342 141.971 237 138z"/>
<path style="fill:#a0b87d; stroke:none;" d="M293 138L297 153L295 171L299 172L292 174L292 175L292 180C296.998 181.144 300.193 180.49 301 175L304 176L306 175C304.987 170.253 302.668 169.136 298 170L297 155L322 166C320.733 158.043 308.939 150.269 301 151L293 138z"/>
<path style="fill:#9bb0b4; stroke:none;" d="M171 139L170 144L171 144L171 139z"/>
<path style="fill:#e6f1f9; stroke:none;" d="M175 144L171 142C174.18 146.881 179.167 143.91 180 139C176.473 139.561 174.937 140.326 175 144z"/>
<path style="fill:#6b7d88; stroke:none;" d="M233 139L236 152L238 152L237 141L234 143L233 139z"/>
<path style="fill:#4f6b3b; stroke:none;" d="M329 139L330 151L328 154L329 154L329 152L330 152L330 170C323.315 170.504 313.389 178.374 312 185L307 183L308 179L304 191L312 191L313 191C313.228 194.358 313.232 199.482 317 200L316 203L321 204L318 209L335 205C326.817 209.313 317.347 211.085 317 222L318 222L319 217C323.468 217.661 328.4 216.597 330 212L347.586 214.308L364 206L364 205L353 202C354.122 192.085 341.945 179.096 336 172L329 172C334.193 164.585 331 147.919 331 139L329 139z"/>
<path style="fill:#708573; stroke:none;" d="M169 140L159 145L159 146C164.74 147.54 169.743 152.063 172 144L169 140z"/>
<path style="fill:#b3ca93; stroke:none;" d="M349 140L343 154C348.971 150.676 359.385 144.836 349 140z"/>
<path style="fill:#a2b5c2; stroke:none;" d="M219 141L227 161L225 160C225.725 163.575 236.604 173.844 237.94 166.721C238.578 163.317 228.708 153.226 227 149L226 149L227 155L219 141z"/>
<path style="fill:#4d625f; stroke:none;" d="M227 142L233 151L236 150C233.929 145.94 231.652 142.756 227 142z"/>
<path style="fill:#676a5f; stroke:none;" d="M293 143L293 153L294 153L293 143z"/>
<path style="fill:#beca9d; stroke:none;" d="M294 143L295 161L296 161L297 153L294 143z"/>
<path style="fill:#415336; stroke:none;" d="M168 149L168 150L196 160C199.358 167.33 206.602 173.869 214 177L208 165L220 164L222 159L195.039 156.556L178.985 144.581L168 149z"/>
<path style="fill:#a5b9c0; stroke:none;" d="M171 146L171 147L176 146L171 146z"/>
<path style="fill:#758d92; stroke:none;" d="M221 146L222 151L223 151L221 146z"/>
<path style="fill:#62796c; stroke:none;" d="M191 147L189 148C189.914 151.175 200.162 158.917 201 154L205 157C204.668 149.576 197.123 148.192 191 147z"/>
<path style="fill:#393c39; stroke:none;" d="M193.667 147.333L194.333 147.667L193.667 147.333z"/>
<path style="fill:#bdcddb; stroke:none;" d="M224 148L227 155L224 148z"/>
<path style="fill:#c8dade; stroke:none;" d="M189 151L192 154L189 151z"/>
<path style="fill:#758f84; stroke:none;" d="M190 151L191 156L224 159L224 158L204 157L201 154C201 158.549 192.602 151.685 190 151z"/>
<path style="fill:#536a67; stroke:none;" d="M222 151L222 157L218 157L218 158L227 161L222 151z"/>
<path style="fill:#6a8080; stroke:none;" d="M228 151L234 161L228 151z"/>
<path style="fill:#30402a; stroke:none;" d="M329 152C327.929 156.5 329.06 164.008 325.436 167.397C322.344 170.288 301.179 167.704 311.948 176.941C313.228 178.039 314.641 179.005 316 180L330 170L329 152z"/>
<path style="fill:#6d874c; stroke:none;" d="M297 155L298 170L305 172L306 172L308 172L309 172C313.507 167.777 320.185 169 326 169L326 168L297 155z"/>
<path style="fill:#4a4d44; stroke:none;" d="M294.333 158.667L294.667 159.333L294.333 158.667z"/>
<path style="fill:#5f674f; stroke:none;" d="M190 159L201 167L196 160L190 159z"/>
<path style="fill:#6f886c; stroke:none;" d="M348 174C356.394 170.557 369.768 167.988 375 160C368.4 160.493 351.166 168.114 348 174z"/>
<path style="fill:#d1d6ad; stroke:none;" d="M309 161L309 162L326 168L326 167L309 161z"/>
<path style="fill:#688468; stroke:none;" d="M226 165C226.896 175.281 231.723 188.725 243 191L243 190L235 184L241 187L236 183L236 182L237 178L236 178L234 182C232.219 178.179 227.049 171.505 231 168L231 167L226 165z"/>
<path style="fill:#4d6162; stroke:none;" d="M234 169L234 171C238.783 171.55 242.215 171.719 242 166L234 169z"/>
<path style="fill:#7b9c5a; stroke:none;" d="M294 168L290 174L299 172L294 168z"/>
<path style="fill:#a7c89f; stroke:none;" d="M306 170L303 187L304 187L310 177L308 170L306 170z"/>
<path style="fill:#3a3d35; stroke:none;" d="M356 170L356 171L359 171L356 170z"/>
<path style="fill:#b7cbd4; stroke:none;" d="M229 172L234 182C236.314 177.406 233.11 174.011 229 172z"/>
<path style="fill:#99a288; stroke:none;" d="M336 173L336 174L343 179L343 176L348 173L336 173z"/>
<path style="fill:#b9d3ac; stroke:none;" d="M290 174L294 179L290 174z"/>
<path style="fill:#677747; stroke:none;" d="M304 174L301 175L301 179L305 178L304 174z"/>
<path style="fill:#768b8b; stroke:none;" d="M234 175L236 178L234 175z"/>
<path style="fill:#8ea979; stroke:none;" d="M307 178L307 183L312 185L312 184L309 183L309 181L313 177L307 178z"/>
<path style="fill:#434438; stroke:none;" d="M303 177L299 179L299 180L302 185L303 185L303 177z"/>
<path style="fill:#000000; stroke:none;" d="M312 178L309 183C312.582 182.432 313.943 181.492 315 178L312 178z"/>
<path style="fill:#c3c8c6; stroke:none;" d="M343 178L344 183L345 183L343 178z"/>
<path style="fill:#565757; stroke:none;" d="M344 178L345 179L344 178z"/>
<path style="fill:#626c49; stroke:none;" d="M216 179C214.612 187.723 221.308 202.648 211.992 207.951C208.967 209.673 205.277 209.143 202 210L202 211L213 210C215.132 217.186 229.192 219.383 236 221L230 216L232 202L239 206L233 199L238 199L238 198C228.705 197.696 224.463 183.868 216 179z"/>
<path style="fill:#000000; stroke:none;" d="M285 181C286.901 188.985 284.715 197.277 293 202C296.106 193.707 294.512 187.775 291 180L285 181z"/>
<path style="fill:#141414; stroke:none;" d="M297 185L302 186L301 180L297 185z"/>
<path style="fill:#433f3a; stroke:none;" d="M291 181C294.532 188.82 295.35 193.637 293 202C287.988 197.804 286.139 193.477 286 187L285 187L283.397 198.907L271 212L293 211L293 220L289 219L289 253L290 253L293 253L294 248C288.604 248 294.284 236.615 297 235L297 242L302 242L302 229L298 229L295 208L298 211L299 211L300 208L297 206L300 206L301 197L300 197L297 205L296 205L297 194C301.326 192.657 301.194 190.162 301 186L297 188L296 181L291 181z"/>
<path style="fill:#695d57; stroke:none;" d="M296 181L299 188L298 181L296 181z"/>
<path style="fill:#e4f2f1; stroke:none;" d="M345 181C346.486 190.914 355.698 203.563 366 205L366 204L345 181z"/>
<path style="fill:#79827d; stroke:none;" d="M346 181L347 182L346 181z"/>
<path style="fill:#393c32; stroke:none;" d="M215 183L215 191L216 191L215 183z"/>
<path style="fill:#789791; stroke:none;" d="M345.333 184.667L345.667 185.333L345.333 184.667z"/>
<path style="fill:#646a67; stroke:none;" d="M348 184L349 185L348 184z"/>
<path style="fill:#78905d; stroke:none;" d="M302 185L300 206L297 206L300 208L305 203L305 202L301 202L301 201C307.473 201.061 313.933 202.038 317 208L319 208L321 204L316 203L317 200C313.427 200 313.242 194.066 313 191L312 191C311.347 192.96 311 193.554 311 191L310 191L310 200L305 199L309 191L304 191L302 185z"/>
<path style="fill:#3b4f29; stroke:none;" d="M217 186C217.078 193.07 221.813 201.307 216 207L216 208L227 202C224.056 195.052 225.752 188.393 217 186z"/>
<path style="fill:#648378; stroke:none;" d="M346.333 187.667L346.667 188.333L346.333 187.667z"/>
<path style="fill:#66706d; stroke:none;" d="M350 187L351 188L350 187z"/>
<path style="fill:#8e9c9a; stroke:none;" d="M383 189L383 190L386 190L383 189z"/>
<path style="fill:#556848; stroke:none;" d="M243 190C246.141 194.284 252.896 196.235 258 197L258 196L243 190z"/>
<path style="fill:#838d8a; stroke:none;" d="M352 190L353 191L352 190z"/>
<path style="fill:#818a84; stroke:none;" d="M365 195L367 201C366.478 194.906 377.705 191.779 382 195L383 190L365 195z"/>
<path style="fill:#b7cdc2; stroke:none;" d="M383 190L379 201C382.393 198.687 384.922 193.857 383 190z"/>
<path style="fill:#f3f8f7; stroke:none;" d="M384 192L388 191L384 192z"/>
<path style="fill:#90ae82; stroke:none;" d="M309 191L305 199L310 200L309 191z"/>
<path style="fill:#666c69; stroke:none;" d="M353 191L354 192L353 191z"/>
<path style="fill:#90a772; stroke:none;" d="M382 198L386 192L390 193C386.28 188.761 383.137 194.481 382 198z"/>
<path style="fill:#111110; stroke:none;" d="M301 192L299 197L301 192z"/>
<path style="fill:#41632a; stroke:none;" d="M386 192C383.48 198.416 377.86 203.017 371 204C370.984 199.356 372.014 197.426 376 195L376 194C367.053 195.878 367.043 198.299 370 206C362.017 206.061 351.491 205.758 349 215L367 212L367 213L363 214L363 215C373.091 214.204 392.077 209.563 389 196L391 197L386 192z"/>
<path style="fill:#34482d; stroke:none;" d="M371 204C377.588 203.502 380.35 199.303 381 193C374.283 194.026 370.342 197.021 371 204z"/>
<path style="fill:#95af8a; stroke:none;" d="M390 193L391 197L392 197L390 193z"/>
<path style="fill:#959a86; stroke:none;" d="M297 194L297 201C299.42 198.48 299.944 196.281 297 194z"/>
<path style="fill:#5a615e; stroke:none;" d="M355 194L356 195L355 194z"/>
<path style="fill:#505552; stroke:none;" d="M367.667 194.333L368.333 194.667L367.667 194.333z"/>
<path style="fill:#8f9997; stroke:none;" d="M356 196L357 197L356 196z"/>
<path style="fill:#96a79f; stroke:none;" d="M360 197L370 205L369 201L365 201L366 196L360 197z"/>
<path style="fill:#7d9356; stroke:none;" d="M389 196C390.523 205.913 375.502 214.237 368 219L368 220L376 220L376 221C369.77 220.996 361.761 221.296 360 214L330 212C327.611 216.133 323.593 217.03 319 217L315 229L330 233C339.623 225.061 354.151 237.524 364 238.772C375.511 240.231 384.182 232.873 396 236L401 231L402 223L401 219L400 211L401 211L403 221L403 222C413.928 218.334 395.523 204.952 391 203C391.903 199.663 391.859 198.065 389 196z"/>
<path style="fill:#859b70; stroke:none;" d="M354 197L353 202L358 202L354 197z"/>
<path style="fill:#545c5a; stroke:none;" d="M357 197L357 198L360 198L357 197z"/>
<path style="fill:#4e5f32; stroke:none;" d="M233 199C238.685 206.105 244.55 205.932 253 207C246.692 214.759 239.738 225.469 255 227L255 226L252 225L255 207L260 208C255.036 203.403 239.925 198.619 233 199z"/>
<path style="fill:#6c7060; stroke:none;" d="M296 198L296 205L297 205L296 198z"/>
<path style="fill:#849458; stroke:none;" d="M326 198L333 203L333 202L326 198z"/>
<path style="fill:#2f3f1d; stroke:none;" d="M334 202C338.104 205.892 344.058 203.445 345 198L334 202z"/>
<path style="fill:#b5d6d0; stroke:none;" d="M358 198L366 204L364 205L364 206L370 206L358 198z"/>
<path style="fill:#60735e; stroke:none;" d="M241 200L241 201L248 203L241 200z"/>
<path style="fill:#a3b384; stroke:none;" d="M301 201L301 202L306 202L301 201z"/>
<path style="fill:#414d2c; stroke:none;" d="M232 202L230 216L240 223L240 224C231.664 220.784 217.207 218.534 213 210L202 211L203 208L189 208C191.207 213.06 196.76 216.568 202 218L202 219L200 220L205 227L203 221L220 230L220 231L215 230C219.062 237.504 228.56 231.836 235 231L235 230L233 230L233 229C239.671 229.847 256.244 229.201 260 235L262 233C266.578 236.224 281.45 245.732 278 252L278 253L281 250L291 259L292 255L288 255L286 248L282 249C276.867 232.938 256.177 228.87 242 225C244.296 214.955 243.36 205.872 232 202z"/>
<path style="fill:#000000; stroke:none;" d="M298 214L312 206C305.179 198.652 299.293 206.753 298 214z"/>
<path style="fill:#55653e; stroke:none;" d="M310 202L310 220L309 220C307.263 209.297 296.715 212.938 296 222L297 222L297 218L298 218C302.139 224.555 307.424 222.78 314 223C314.057 216.075 320.306 202.821 310 202z"/>
<path style="fill:#7b9578; stroke:none;" d="M248 203L248 204L254 206L248 203z"/>
<path style="fill:#5f6a50; stroke:none;" d="M284 209L292 210L292 204L284 209z"/>
<path style="fill:#292a19; stroke:none;" d="M316 208L313 226L319.724 214.26L335 205L316 208z"/>
<path style="fill:#abbda1; stroke:none;" d="M360 204L360 205L363 205L360 204z"/>
<path style="fill:#667148; stroke:none;" d="M189 206C186.994 214.328 194.654 218.659 202 219L202 218C199.444 217.24 185.406 208.851 192 208L189 206z"/>
<path style="fill:#7f9180; stroke:none;" d="M190 206L190 207L199 208L190 206z"/>
<path style="fill:#404340; stroke:none;" d="M196.667 206.333L197.333 206.667L196.667 206.333z"/>
<path style="fill:#627443; stroke:none;" d="M239 206C242.979 213.849 243.268 216.377 242 225L260 230L260 229C243.321 223.665 244.974 220.458 253 207L239 206z"/>
<path style="fill:#2f401f; stroke:none;" d="M255 207L252 225L269 234L270 234C273.727 231.534 275.4 234.238 276 238L277 238L276 229L268 231L265 222L271 222L270 213L265 215C262.832 210.127 260.313 207.846 255 207z"/>
<path style="fill:#8ba768; stroke:none;" d="M307 208L309 210L309 220L310 220L312 207L307 208z"/>
<path style="fill:#919786; stroke:none;" d="M295 208L295 224L296 224L297 208L295 208z"/>
<path style="fill:#717c59; stroke:none;" d="M298 212L297 212L297 217C301.116 214.485 303.083 212.813 308 214L309 210L298 212z"/>
<path style="fill:#737e55; stroke:none;" d="M280 211L280 212L287 213L280 211z"/>
<path style="fill:#000000; stroke:none;" d="M285 229C274.628 229.944 277.188 237.014 281 244L290 244L289 219L293 220L293 211C287.01 211.331 277.871 210.521 272.305 212.514C269.047 213.681 267.227 217.503 269.747 220.347C274.627 225.855 280.559 220.799 285 229z"/>
<path style="fill:#556b42; stroke:none;" d="M400 211L401 219C398.883 221.213 400.813 222.592 403 224L403 221C406.462 217.832 402.729 213.531 400 211z"/>
<path style="fill:#537b36; stroke:none;" d="M359 213C360.557 222.807 370.177 219.663 375 214L363 215L363 214L367 213L359 213z"/>
<path style="fill:#7e8152; stroke:none;" d="M221 216L221 217L240 224L221 216z"/>
<path style="fill:#b1c38b; stroke:none;" d="M327 220L327 221L346 221.603L365 231L365 230L350 221L362 221C352.573 216.157 337.178 217.034 327 220z"/>
<path style="fill:#000000; stroke:none;" d="M297 218C296.079 225.493 297.784 227.592 305 224L297 218z"/>
<path style="fill:#837d7e; stroke:none;" d="M290 220L293 224L290 220z"/>
<path style="fill:#b1bd91; stroke:none;" d="M366 220L366 221L376 221L366 220z"/>
<path style="fill:#2f342e; stroke:none;" d="M203 221C205.044 230.366 197.016 233.544 191.286 239.998C184.413 247.742 179.969 244.262 171 246.557C157.512 250.008 143.137 255.082 129 256L130 265L162 266L162 265L151 261L151 260L182 260C181.456 265.357 182.973 273.698 189 275C189.257 287.428 192.645 291.273 204 296L204 290L200 290L200 289L207 288C206.803 300.783 220.701 286.55 224 284L224 283L217 283C225.213 270.413 238.595 259.384 255 259L255 260L253 260L253 261L264 260L267 257L274 260L274 261L266 262L265 267L269 267L268 280L279 277L279 278L276 279C279.598 286.204 276.465 290.897 269 286L258.301 309.741L242 323L236 324L247 313L234 315L242 301C211.983 316.198 234.564 353.863 262 349L262 348L262.907 336L260 313L261 313L264 340L265 340C275.638 325.201 273.437 313.709 268 297L269 297L275 318L286 293L286 299C293.982 308.614 289 328.268 289 340L290 340L290 338L291 338L291 383L292 383L292 375L297 378C298.653 364.906 295.001 349.718 295 336C295 329.414 292.16 323.217 299 320L297 296C301.426 294.705 300.688 290.9 300 287L298 289L297 289L301 258L299 254L298 254L298 259L297 259L297 248L298 248C299.586 258.147 309.472 251.719 315 248L308 247L312 228L311 228L304 243C292.868 238.649 296 255.185 296 262L293 262L293 253L292 253L291 259L281 250C278.442 254.06 273.513 254.467 269 254L270 250L268 253L242 239C242 242.249 238.403 239.506 236 239L231 248L226 243L225 243C220.453 243.48 219.53 236.587 219 233L215 230L220 231L220 230L203 221z"/>
<path style="fill:#6a804e; stroke:none;" d="M337 221C341.568 230.487 353.766 232.042 363 235L364 231L337 221z"/>
<path style="fill:#b2b890; stroke:none;" d="M377 221L377 222L385 222L377 221z"/>
<path style="fill:#718052; stroke:none;" d="M265 222L268 231L280 223L265 222z"/>
<path style="fill:#57663a; stroke:none;" d="M276 222L276 223L280 223L273 228L273 229L284 227C282.113 223.034 280.336 222.144 276 222z"/>
<path style="fill:#939e6c; stroke:none;" d="M303 229L311 228L313 222C308.248 222.98 304.118 223.872 303 229z"/>
<path style="fill:#725a4e; stroke:none;" d="M312 224L315 231L312 224z"/>
<path style="fill:#67754c; stroke:none;" d="M298 229L302 229L302 233L309 235L311 228L303 229L304 225L298 229z"/>
<path style="fill:#384034; stroke:none;" d="M400 226L400 229L401 229L400 226z"/>
<path style="fill:#6e7558; stroke:none;" d="M275 230L275 231L285 229L285 227L275 230z"/>
<path style="fill:#6c7d49; stroke:none;" d="M233 229L233 230L249 232L248 240L254 243L255 233L259 233L262 242L263 235L260 232L233 229z"/>
<path style="fill:#cfd9b1; stroke:none;" d="M316 229L316 230L328 234L316 229z"/>
<path style="fill:#594a41; stroke:none;" d="M309 243L311 243L312 238L316 245L312 246L315 248C309.123 250.785 300.643 257.199 298 248L297 248L297 259L298 259L298 254L299 254L301 258L297 289L298 289L300 287L302 296L303 296C303 279.424 296.537 257.689 315 250L316 255L317 255L318 236L313 237L316 230C310.198 231.216 309.638 237.764 309 243z"/>
<path style="fill:#5b7242; stroke:none;" d="M316 230L313 237L320 238C319.873 234.098 319.401 232.085 316 230z"/>
<path style="fill:#b7cda0; stroke:none;" d="M330 231L337 244L338 244C343.939 239.321 354.65 239.152 362 239C353.952 232.498 340.159 229.383 330 231z"/>
<path style="fill:#1d291a; stroke:none;" d="M219 234C219.387 236.619 221.135 246.358 225 243L226 243L231 248L236 239C238.183 239.805 241.497 241.835 242 239L262 252L261 249L266 249L266 248L260 246L248 240L249 233L238 235L238 231L219 234z"/>
<path style="fill:#3a4e23; stroke:none;" d="M238 231L238 235C243.271 236.588 244.486 235.46 249 233L238 231z"/>
<path style="fill:#231f1d; stroke:none;" d="M270 232L276 239C275.845 234.276 274.89 232.381 270 232z"/>
<path style="fill:#7a975f; stroke:none;" d="M320 232C319.746 239.501 320.905 241.323 328 244C329.16 236.707 327.129 233.501 320 232z"/>
<path style="fill:#eff5f7; stroke:none;" d="M331 248C335.44 240.451 334.227 240.682 332 232C326.465 234.225 325.908 245.114 331 248z"/>
<path style="fill:#8eaa6f; stroke:none;" d="M255 233C253.909 238.878 254.027 242.302 258 247L259 247L259 233L255 233z"/>
<path style="fill:#000000; stroke:none;" d="M262 233L260 248L280 250C277.103 243.219 268.596 236.076 262 233z"/>
<path style="fill:#767064; stroke:none;" d="M268 233L282 249L284 249L286 243L281 244L278 238L268 233z"/>
<path style="fill:#000000; stroke:none;" d="M302 233L303 243L308 234L302 233z"/>
<path style="fill:#b2a8a1; stroke:none;" d="M292 247L293 247L297 235C292.456 237.497 292.209 242.152 292 247z"/>
<path style="fill:#000000; stroke:none;" d="M296 237L293 262L296 262L296 237M312 238L308 247L316 245L312 238z"/>
<path style="fill:#a7b6af; stroke:none;" d="M317 238L319 257L320 257L323 255L319 238L317 238z"/>
<path style="fill:#3a3e35; stroke:none;" d="M369 238L369 239L373 239L369 238z"/>
<path style="fill:#6b7364; stroke:none;" d="M355 239L355 240L362 240L355 239z"/>
<path style="fill:#373934; stroke:none;" d="M362 239L362 240L365 240L362 239z"/>
<path style="fill:#c3d5d3; stroke:none;" d="M319 240L323 255L320 258L325 260L326 249L338 256L336 249L342 250L337 241L336 241L331 248L319 240z"/>
<path style="fill:#848e7a; stroke:none;" d="M346 240L346 241L349 241L346 240z"/>
<path style="fill:#484e45; stroke:none;" d="M349 240L349 241L353 241L349 240z"/>
<path style="fill:#383535; stroke:none;" d="M294 241L294 244L295 244L294 241z"/>
<path style="fill:#3b3f38; stroke:none;" d="M343.667 241.333L344.333 241.667L343.667 241.333z"/>
<path style="fill:#9d8c81; stroke:none;" d="M286 243L286 251L287 251L288 243L286 243z"/>
<path style="fill:#e2dadb; stroke:none;" d="M287 245L287 251L288 251L287 245z"/>
<path style="fill:#7d7874; stroke:none;" d="M293 245L292 249L293 249L293 245z"/>
<path style="fill:#68706e; stroke:none;" d="M339 245L340 246L339 245z"/>
<path style="fill:#585f5e; stroke:none;" d="M340 246L341 247L340 246z"/>
<path style="fill:#b3a9a9; stroke:none;" d="M288 248L288 255L289 255L288 248z"/>
<path style="fill:#73857a; stroke:none;" d="M317 248L318 256L319 256L317 248z"/>
<path style="fill:#54695a; stroke:none;" d="M261 249L261 250C264.786 252.281 266.476 252.761 270 250L269 254C273.475 254.954 277.484 254.001 280 250L261 249z"/>
<path style="fill:#99b7a5; stroke:none;" d="M326 249L326 253C333.322 253.559 331.769 259.333 334 265L340 261C337.335 254.699 332.838 250.239 326 249z"/>
<path style="fill:#b1c7c0; stroke:none;" d="M336 249C340.2 257.485 348.339 259.631 357 262L357 263L346 260C355.559 273.569 370.453 268.546 379 283L369 279L384 310L385 310C385.293 307.286 383.086 302.754 384.252 300.488C386.462 296.19 394.508 301.559 396 304L401 301C399.971 293.358 397.921 287.194 402 280C388.61 274.807 376.916 267.27 364 261.309C356.21 257.714 348.274 256.311 343 249L336 249z"/>
<path style="fill:#807878; stroke:none;" d="M290 251C289.423 253.711 289.232 254.395 292 255L290 251z"/>
<path style="fill:#c8c5c1; stroke:none;" d="M291 251L291 254L292 254L291 251z"/>
<path style="fill:#7b9587; stroke:none;" d="M326 253L325 260L320 258L339 271C336.075 264.705 332.624 253.217 326 253z"/>
<path style="fill:#425450; stroke:none;" d="M219 254L220 259L224 254L219 254z"/>
<path style="fill:#50543c; stroke:none;" d="M124 274L125 274L125 269L126 269L126 272C143.929 270.536 165.674 269.568 182 261L182 260L151 260L151 261L162 265L162 266L130 265L129 256L135 256C124.465 251.614 124.001 267.369 124 274z"/>
<path style="fill:#d8e6ec; stroke:none;" d="M338 255L341 264L342 264L342 261L355 272.436L365.487 277.43L379 296L369 279L379 283C373.805 270.432 367.034 274.565 357 269.682C352.685 267.582 349.341 263.34 346 260L357 263L357 262L338 255z"/>
<path style="fill:#b9cec5; stroke:none;" d="M338 256L340 261C335.225 262.679 335.606 267.586 339.483 270.501C343.649 273.633 350.977 273.896 356 274C354.218 271.192 343.427 257.511 342 264L341 264L338 256z"/>
<path style="fill:#4c5b41; stroke:none;" d="M264 260L258 260L258 261C262.331 261.903 263.662 263.625 264 268L265 268L266 262L274 261L274 260L267 257L264 260z"/>
<path style="fill:#4d6548; stroke:none;" d="M238 264L238 265L255 260C249.324 257.642 242.958 261.179 238 264z"/>
<path style="fill:#657a5c; stroke:none;" d="M244 271L245 271C248.643 263.056 253.56 262.07 262 262C253.636 258.49 245.363 261.975 244 271z"/>
<path style="fill:#1e291c; stroke:none;" d="M227 291C229.371 296.922 233.17 296.995 239 297L253 284C264.629 290.614 267.689 274.06 269 267L264 268L264 262C259.352 262.001 252.489 261.239 248.51 264.164C245.307 266.519 244.038 272.587 242.138 276C238.213 283.051 234.119 287.21 227 291z"/>
<path style="fill:#4c4f4c; stroke:none;" d="M323 262L323 263C336.822 273.237 344.912 277.734 362 277L342 272.247L323 262z"/>
<path style="fill:#1f2a1c; stroke:none;" d="M217 283L233 282L246 264C231.641 265.173 222.864 269.757 217 283z"/>
<path style="fill:#555b59; stroke:none;" d="M374 267L375 268L374 267z"/>
<path style="fill:#545a59; stroke:none;" d="M376 268L377 269L376 268z"/>
<path style="fill:#676a5f; stroke:none;" d="M125 269L128 278C129.689 272.602 134.873 271.694 140 271L140 270C134.775 270.108 129.198 272.856 125 269z"/>
<path style="fill:#3d4c3f; stroke:none;" d="M243 269L233 282L231 280C224.721 281.85 209.897 300.015 207 288L200 289L200 290L204 290L204 296C193.564 289.909 189.548 287.767 189 275L188 275C188 279.169 186.978 285.056 189.179 288.787C194.771 298.266 212.386 299.767 222 300.015C229.267 300.202 240.229 301.862 243 293L239 297C233.18 296.979 230.1 296.189 227 291C233.916 288.468 247.595 277.544 243 269z"/>
<path style="fill:#3a3d3c; stroke:none;" d="M381.667 271.333L382.333 271.667L381.667 271.333z"/>
<path style="fill:#86a098; stroke:none;" d="M341 272L341 273L345 273L341 272z"/>
<path style="fill:#99b0ae; stroke:none;" d="M345 273L345 274L350 274L345 273z"/>
<path style="fill:#50594d; stroke:none;" d="M282 275L282 276L286 275L288 289L293 289L293 288C288.532 285.266 288.581 280.664 292 277L282 275z"/>
<path style="fill:#859e92; stroke:none;" d="M351 274L351 275L360 275L351 274z"/>
<path style="fill:#000000; stroke:none;" d="M291 275L293 285L294 285C294.664 281.06 294.536 277.284 291 275z"/>
<path style="fill:#607653; stroke:none;" d="M351 275L351 276L362 276L362 277L356 277C358.722 283.965 364.596 286.097 371 289C366.668 276.818 363.773 275 351 275z"/>
<path style="fill:#536b59; stroke:none;" d="M246 291L246 292L271 281L269 285L275 282L273 285L277 285L272 288L272 289C279.213 288.6 279.684 284.584 276 279L279 278C269.088 275.077 254.523 286.938 246 291z"/>
<path style="fill:#9c9897; stroke:none;" d="M290 277L291 280L292 280L292 277L290 277z"/>
<path style="fill:#c7bfc0; stroke:none;" d="M290 278C288.833 282.068 289.048 284.928 293 287L290 278z"/>
<path style="fill:#374538; stroke:none;" d="M255 288L255 289L266 285L267 288L269 286L272 288L275 282L269 285L271 281L255 288z"/>
<path style="fill:#e5f2f8; stroke:none;" d="M400 281L401 301L396 306L402 304L402 281L400 281z"/>
<path style="fill:#868e8f; stroke:none;" d="M402 281L403 282L402 281z"/>
<path style="fill:#414545; stroke:none;" d="M403 282L403 296L404 296L403 282z"/>
<path style="fill:#556551; stroke:none;" d="M207 287L207 288L213 284L207 287z"/>
<path style="fill:#3a4739; stroke:none;" d="M253 284L248 290L255 287L253 284z"/>
<path style="fill:#21291f; stroke:none;" d="M265 285L246 293L234 315L247 313L236 324L242 323C246.282 318.961 252.214 317.353 255.786 312.409C259.139 307.769 258.417 302.074 260.985 297.17C263.068 293.194 267.707 289.484 265 285z"/>
<path style="fill:#7b9298; stroke:none;" d="M272 285L272 288L277 285L272 285z"/>
<path style="fill:#8f8285; stroke:none;" d="M290 285L293 288L293 287L290 285z"/>
<path style="fill:#7b8b6e; stroke:none;" d="M367 287C370.802 294.676 375.989 301.977 383 307L372 288L367 287z"/>
<path style="fill:#4c5a3d; stroke:none;" d="M266 288L257 312L258 312L266 288z"/>
<path style="fill:#7f9796; stroke:none;" d="M243 295L249 293C246.12 291.902 244.65 292.445 243 295z"/>
<path style="fill:#595553; stroke:none;" d="M285 293L286 298L287 298L285 293z"/>
<path style="fill:#66544d; stroke:none;" d="M300 293L297 296L298 319L299 319C299 314.882 297.758 308.19 301 309L300 293z"/>
<path style="fill:#e3cdc3; stroke:none;" d="M301 293L301 296L302 296L301 293z"/>
<path style="fill:#8a948a; stroke:none;" d="M284 295C281.505 298.637 281.883 319.319 275 316L274 316C274 327.788 271.166 336.997 263 346L263 347C277.113 343.038 279.853 323.02 282.594 311C283.701 306.148 285.488 299.839 284 295z"/>
<path style="fill:#9e8980; stroke:none;" d="M301 296L299 302L300 302L300 298L301 298L301 301L302 301L301 296z"/>
<path style="fill:#4a574c; stroke:none;" d="M268 297C271.255 311.068 274.386 319.736 270 334C279.148 327.747 274.485 304.207 268 297z"/>
<path style="fill:#97a0a0; stroke:none;" d="M402 297L402 303L403 303L402 297z"/>
<path style="fill:#dbd1ce; stroke:none;" d="M300 298L300 302L301 302L300 298z"/>
<path style="fill:#8caba5; stroke:none;" d="M383 303L384 303C389.238 300.438 392.591 304.706 397 307L396 301C391.04 299.936 384.244 295.842 383 303z"/>
<path style="fill:#58534e; stroke:none;" d="M287 299L289 316L290 316L287 299z"/>
<path style="fill:#526054; stroke:none;" d="M281 301L277 318L278 318C280.568 313.161 283.201 306.295 281 301z"/>
<path style="fill:#708e83; stroke:none;" d="M384 301C384.691 306.507 386.71 309.292 392 311C389.361 307.459 385.796 304.12 393 304L384 301z"/>
<path style="fill:#a79892; stroke:none;" d="M300 302L300 307L301 307L300 302z"/>
<path style="fill:#5f7668; stroke:none;" d="M396 308C389.192 297.804 383.875 312.141 396 308z"/>
<path style="fill:#9ca1a1; stroke:none;" d="M399 304L400 305L399 304z"/>
<path style="fill:#686b6c; stroke:none;" d="M398 305L399 306L398 305z"/>
<path style="fill:#272827; stroke:none;" d="M288 307L288 316L289 316L288 307z"/>
<path style="fill:#af9a93; stroke:none;" d="M299 308L299 314L301 314L299 308z"/>
<path style="fill:#f1fcfd; stroke:none;" d="M385 308L385 310L387 310L385 308z"/>
<path style="fill:#545756; stroke:none;" d="M282 310L282 317L283 317L282 310z"/>
<path style="fill:#9fa7ab; stroke:none;" d="M385 310L385 311L391 312L391 310L385 310z"/>
<path style="fill:#887975; stroke:none;" d="M301 312L299 322L300 322L301 312z"/>
<path style="fill:#4b5a4a; stroke:none;" d="M260 313L260 348L264 348L270 334L269 334L265 340L264 340C264 331.535 265.147 320.224 260 313z"/>
<path style="fill:#c2bcba; stroke:none;" d="M301 315C296.233 330.973 296.266 352.989 301 369L302 369L301 332L301 315z"/>
<path style="fill:#56504c; stroke:none;" d="M288 316L288 321L289 321L288 316z"/>
<path style="fill:#3c3c3b; stroke:none;" d="M302 317L302 321L303 321L302 317z"/>
<path style="fill:#7b7673; stroke:none;" d="M289 320L289 325L290 325L289 320z"/>
<path style="fill:#6e605e; stroke:none;" d="M294 321L294.182 353L297 378L292 375L292 380L298 381L299 413L300 413L301 409L300.977 397L299.147 377.039L303 367L302 367L301 369L299 320L294 321z"/>
<path style="fill:#b7a196; stroke:none;" d="M293 322L296 326L295 322L293 322z"/>
<path style="fill:#7d7979; stroke:none;" d="M301 322L301 347L302 347L301 322z"/>
<path style="fill:#766f6d; stroke:none;" d="M290 327L290 337L291 337L290 327z"/>
<path style="fill:#3f4040; stroke:none;" d="M277.333 328.667L277.667 329.333L277.333 328.667z"/>
<path style="fill:#737170; stroke:none;" d="M290 338L290 354L291 354L290 338z"/>
<path style="fill:#5a5451; stroke:none;" d="M291 353L291 373L292 373L291 353z"/>
<path style="fill:#514e4e; stroke:none;" d="M302 355L302 367L303 367L302 355z"/>
<path style="fill:#cabfbf; stroke:none;" d="M302 371C298.921 376.8 298.005 390.3 304 394L302 371z"/>
<path style="fill:#8d7d7d; stroke:none;" d="M299 373L299 387L300 387L299 373z"/>
<path style="fill:#918a8c; stroke:none;" d="M303 376L303 388L304 388L303 376z"/>
<path style="fill:#3e302c; stroke:none;" d="M293 379C293.576 406.923 296.78 436.372 292.259 464C291.202 470.462 295.567 486.349 290 490L291 494L285 488L284 488L288 503L292 501L293 501C293.721 506.704 295.701 514.114 292 519L292 520C295.859 524.715 295 531.206 295 537L299 537C299 532.703 297.025 517.582 301 517L299 509L301.556 506.972L297.111 493L299 482C292.664 478.724 297.313 475.289 297.892 469.985C298.883 460.901 299.742 448.924 298 440L300 440C294.754 420.504 298 401.496 298 381L293 379z"/>
<path style="fill:#7c7979; stroke:none;" d="M292 380L292 389L293 389L292 380z"/>
<path style="fill:#645d5c; stroke:none;" d="M293 385L293 461L294 461L293.594 414L293 385z"/>
<path style="fill:#b1a5a6; stroke:none;" d="M304 388L304 394L301 393L301 400L302 400L302 396L305 396L304 388z"/>
<path style="fill:#2b2b2c; stroke:none;" d="M305 392L305 398L306 398L305 392z"/>
<path style="fill:#574d4c; stroke:none;" d="M297 396L297 435L298 435L297 396z"/>
<path style="fill:#e0dadc; stroke:none;" d="M302 396C300.44 405.214 295.065 428.893 304 435L305 396L302 396z"/>
<path style="fill:#403f40; stroke:none;" d="M304 399L304 418L305 418L304 399z"/>
<path style="fill:#a39595; stroke:none;" d="M299 403L299 409L300 409L299 403z"/>
<path style="fill:#b0a3a2; stroke:none;" d="M299 413L299 438C302.727 435.37 300.875 417.469 299 413z"/>
<path style="fill:#7f7070; stroke:none;" d="M298 414L297 433L298 433L298 414z"/>
<path style="fill:#525153; stroke:none;" d="M303 419L303 422L304 422L303 419z"/>
<path style="fill:#262627; stroke:none;" d="M304 424L304 429L305 429L304 424z"/>
<path style="fill:#4f4d4d; stroke:none;" d="M304 429L304 438L305 438L304 429z"/>
<path style="fill:#ccbcbd; stroke:none;" d="M302 434L303 453L304 453C304.883 447.783 305.254 438.296 302 434z"/>
<path style="fill:#615554; stroke:none;" d="M300 438L298 440L298 460L299 460L299 450L300 438z"/>
<path style="fill:#797677; stroke:none;" d="M304 438L304 450L305 450L304 438z"/>
<path style="fill:#817677; stroke:none;" d="M300 441L299 450L299 457C303.428 453.628 302.375 445.475 300 441z"/>
<path style="fill:#a69799; stroke:none;" d="M302 452L299 457L299 458L302 475L303 475L302 461L305 452L302 452z"/>
<path style="fill:#535253; stroke:none;" d="M305 455L305 459L306 459L305 455z"/>
<path style="fill:#837676; stroke:none;" d="M299 458L301 463L302 458L299 458z"/>
<path style="fill:#6f6a6b; stroke:none;" d="M304 459L304 466L305 466L304 459z"/>
<path style="fill:#bdb1b1; stroke:none;" d="M302 461C302.751 466.237 303.766 472.93 300 477L300 478L304 478L302 461z"/>
<path style="fill:#695d5f; stroke:none;" d="M298 462C297.999 468.416 291.693 479.776 299 482C298.982 486.271 294.173 494.751 300 496L300 489L305 490L306 485L304 478L300 478L300 477L300 462L298 462z"/>
<path style="fill:#a08f7d; stroke:none;" d="M384 478L391 473L384 478z"/>
<path style="fill:#555555; stroke:none;" d="M391 473L391 474L395 474L391 473z"/>
<path style="fill:#fdfcf8; stroke:none;" d="M390 474L390 475C393.998 479.235 393.28 484.624 392 490C395.766 492.246 394.431 495.083 394 499C404.482 500.747 400.543 492.944 399 486C399.052 486.233 400.684 481.641 400 480C398.337 476.009 394.238 477.046 395 474L390 474z"/>
<path style="fill:#b1afa8; stroke:none;" d="M390 475L391 488L393 488C393 483.319 394.141 477.987 390 475z"/>
<path style="fill:#5d4f46; stroke:none;" d="M383 477L376 492C377.419 496.213 379.357 499.46 376 503L363 492L360 494L361 497L352 492L351 492L352 501L336 499L336 496L343 495L346 498L347 488L345 491L343 487L343 486C339.013 486.854 340 490.489 340 494L334 490L330 493L331 496L334 495C334.631 502.917 342.891 501 349 501L349 502L347 502L347 503L362 500L355 500L355 498C360.459 498 370.369 504.341 373 500L381 508L376 507L382 512L383 507L384 510L385 510L383 497L382 492L391 482L390 476L383 477z"/>
<path style="fill:#9c8f82; stroke:none;" d="M390 477L391 482C386.501 484.045 385.161 486.082 385 491L386 491C386.646 487.001 388.283 485.488 392 484L392 477L390 477z"/>
<path style="fill:#777371; stroke:none;" d="M398 478L399 479L398 478z"/>
<path style="fill:#727171; stroke:none;" d="M399 479L400 480L399 479z"/>
<path style="fill:#8e8c88; stroke:none;" d="M400 482L400 485L401 485L400 482z"/>
<path style="fill:#7a7877; stroke:none;" d="M282 484L282 485L285 485L282 484z"/>
<path style="fill:#93867c; stroke:none;" d="M288 486L292 485L292 486L287 486L286 486L285 491L293 490L293 484L288 486z"/>
<path style="fill:#ae998e; stroke:none;" d="M304 485C306.458 489.721 311.067 493.477 305 497L305 498C310.463 497.996 315.47 498.586 318 493L315 496L313 496L312 488L311 488L309 490L308 484L304 485z"/>
<path style="fill:#3f3e3c; stroke:none;" d="M308 484L308 488L309 488L308 484z"/>
<path style="fill:#8d786f; stroke:none;" d="M311 484C311.248 487.47 311.449 489.961 315 491L315 484L311 484z"/>
<path style="fill:#e7e6e6; stroke:none;" d="M382 501L385 500L391 505L391 491L396 492L396 491L392 490L391 484C384.896 486.555 382.753 494.83 382 501z"/>
<path style="fill:#817570; stroke:none;" d="M195 494C200.857 495.365 204.81 520.045 205 526C209.638 522.656 206.583 519.38 205.194 514.961C202.866 507.551 196.189 493.434 199 486C194.412 484.969 195.011 490.775 195 494z"/>
<path style="fill:#363434; stroke:none;" d="M269 485L269 486L273 486L269 485z"/>
<path style="fill:#383737; stroke:none;" d="M274 485L276 489L274 485z"/>
<path style="fill:#4e4d4c; stroke:none;" d="M277.333 485.667L277.667 486.333L277.333 485.667z"/>
<path style="fill:#dddbdd; stroke:none;" d="M278 485L279 486L278 485z"/>
<path style="fill:#4c4b4c; stroke:none;" d="M279 485L281 488L279 485z"/>
<path style="fill:#3d3d3e; stroke:none;" d="M281.333 485.667L281.667 486.333L281.333 485.667z"/>
<path style="fill:#c9c1bc; stroke:none;" d="M282 485L283 490L279 490L279 486L275 486L276 489L270 488L271 493L269 491L268 491L268 496L263 496L264 499L254 497L254 490L250 489C250.714 492.278 251.916 494.85 249 497L251 501L255 500C259.549 505.221 271.992 501.759 278 501L278 500L267 497L276 496L276 495L272 495L272 493C274.993 492.936 276.346 493.054 277 490L280 494C284.045 492.666 285.071 488.939 286 485L282 485z"/>
<path style="fill:#bebcbc; stroke:none;" d="M288 488L292 486L288 488z"/>
<path style="fill:#403d3e; stroke:none;" d="M310 485L309 490L310 485z"/>
<path style="fill:#c7c2c3; stroke:none;" d="M314 485C315.212 489.837 315.682 492.891 321 494L314 485z"/>
<path style="fill:#d3c9c4; stroke:none;" d="M320 485L324 490L323 485L320 485z"/>
<path style="fill:#5d5b59; stroke:none;" d="M323 485L323 488L324 488L323 485z"/>
<path style="fill:#c1b9b2; stroke:none;" d="M328 485L331 487L334 493L335 490L339 493L337 489L328 485z"/>
<path style="fill:#bab4b0; stroke:none;" d="M197 486L199 491L200 491L197 486z"/>
<path style="fill:#7a6b66; stroke:none;" d="M267 489L268 489L274 486C270.658 486.267 267.803 485.254 267 489z"/>
<path style="fill:#c6c0bf; stroke:none;" d="M271.667 486.333L272.333 486.667L271.667 486.333z"/>
<path style="fill:#ffffff; stroke:none;" d="M282 486L281 490L282 486z"/>
<path style="fill:#625c58; stroke:none;" d="M318 486C319.074 490.902 320.888 493.414 326 494L318 486z"/>
<path style="fill:#726761; stroke:none;" d="M327 486L328 496L331 499L332 499C331.768 496.062 329.476 493.455 333 493L331 487L327 486z"/>
<path style="fill:#a18e7d; stroke:none;" d="M334 486L337 489L338 487L334 486z"/>
<path style="fill:#605b59; stroke:none;" d="M399 486L400 487L399 486z"/>
<path style="fill:#979595; stroke:none;" d="M201.667 487.333L202.333 487.667L201.667 487.333z"/>
<path style="fill:#9c9c9c; stroke:none;" d="M252 489L255 488L252 489z"/>
<path style="fill:#6e6d69; stroke:none;" d="M262.667 487.333L263.333 487.667L262.667 487.333z"/>
<path style="fill:#f8f6f5; stroke:none;" d="M268 487L266 490L271 493L268 487z"/>
<path style="fill:#907a6e; stroke:none;" d="M339 487L338 494L339 487z"/>
<path style="fill:#dfd6cb; stroke:none;" d="M341 487L345 491L345 487L341 487z"/>
<path style="fill:#bca9a6; stroke:none;" d="M347 487L348 496L350 496L352 490L349 487L347 487z"/>
<path style="fill:#3c3c3b; stroke:none;" d="M200 491L201 491L203 489C200.86 487.882 200.473 488.749 200 491z"/>
<path style="fill:#4c4b4a; stroke:none;" d="M247 488L241 490L241 491C243.535 490.99 248.356 491.598 247 488z"/>
<path style="fill:#e4dfdc; stroke:none;" d="M248 488L241 491L243 493L241 496L245 498L246 498L252 497L248 488z"/>
<path style="fill:#ededec; stroke:none;" d="M253 488C253.599 492.143 253.683 494.679 258 496C257.947 491.542 257.704 489.026 253 488z"/>
<path style="fill:#969594; stroke:none;" d="M256.667 488.333L257.333 488.667L256.667 488.333z"/>
<path style="fill:#616161; stroke:none;" d="M258 488L258 489L261 489L258 488z"/>
<path style="fill:#f5f5f5; stroke:none;" d="M259 489C260.094 492.997 260.658 495.276 265 496L264 488L259 489z"/>
<path style="fill:#96857c; stroke:none;" d="M264 488L265 496L268 496L267 488L264 488z"/>
<path style="fill:#7e7d7c; stroke:none;" d="M279 488L279 490L281 490L281 488L279 488z"/>
<path style="fill:#b9ada8; stroke:none;" d="M327 488L324 490L326 494L314 497L314 498L329 495L327 488z"/>
<path style="fill:#403d3d; stroke:none;" d="M251 489L251 490L254 490L251 489z"/>
<path style="fill:#c5bdba; stroke:none;" d="M258 489L258 495L259 495L258 489z"/>
<path style="fill:#9d9292; stroke:none;" d="M300 489L299 494L305 492L300 489z"/>
<path style="fill:#43342f; stroke:none;" d="M305 489L306 496C311.092 494.29 308.582 491.014 305 489z"/>
<path style="fill:#f9f7f8; stroke:none;" d="M202 491L203 496L207 496L205 490L202 491z"/>
<path style="fill:#968a88; stroke:none;" d="M277 490L272 493L272 495L279 496L277 490z"/>
<path style="fill:#e0dedd; stroke:none;" d="M287 490L290 493L287 490z"/>
<path style="fill:#ccc5bf; stroke:none;" d="M352 490L361 497L352 490z"/>
<path style="fill:#636160; stroke:none;" d="M353 490L354 491L353 490z"/>
<path style="fill:#7d7b79; stroke:none;" d="M359 493L361 490L359 493z"/>
<path style="fill:#a19593; stroke:none;" d="M199 491L205 518L206 518L201 491L199 491z"/>
<path style="fill:#2b2a2b; stroke:none;" d="M201 491L204 493L204 492L201 491z"/>
<path style="fill:#343434; stroke:none;" d="M205 491L205 494L206 494L205 491z"/>
<path style="fill:#d2d3d3; stroke:none;" d="M233 493L236 491L233 493z"/>
<path style="fill:#59595a; stroke:none;" d="M236.667 491.333L237.333 491.667L236.667 491.333z"/>
<path style="fill:#767272; stroke:none;" d="M238 492L238 493L243 494L238 492z"/>
<path style="fill:#42332e; stroke:none;" d="M312 491L313 496L315 496C315.494 492.863 315.036 492 312 491z"/>
<path style="fill:#4c4a49; stroke:none;" d="M354.667 491.333L355.333 491.667L354.667 491.333z"/>
<path style="fill:#504c48; stroke:none;" d="M363.667 491.333L364.333 491.667L363.667 491.333z"/>
<path style="fill:#a39589; stroke:none;" d="M371 491L366 493L376 503L379 502L377 493L371 491z"/>
<path style="fill:#c7b7a8; stroke:none;" d="M391 491L391 495L396 494L391 491z"/>
<path style="fill:#716d6c; stroke:none;" d="M232 492L229 494L233 498L231 495L232 492z"/>
<path style="fill:#ffffff; stroke:none;" d="M235 492L238 494L235 492z"/>
<path style="fill:#ab9c9b; stroke:none;" d="M290 492L289 494L291 494L290 492z"/>
<path style="fill:#867475; stroke:none;" d="M300 496L299 509C300.725 516.891 305.8 519.618 300 527L300 528L300 537L306 537L308 522L309 522L312 534L311 534L310 531L309 531L309 536L313 536L315 517L310 512L307 521L306 521L302 513L306 513L305 504L314 505L314 504L304 502L304 500L322 499L322 498C314.711 498 306.721 499.324 301 494L305 496C305.998 491.561 300.804 492.014 300 496z"/>
<path style="fill:#e9e6e6; stroke:none;" d="M348 492L350 494L350 492L348 492z"/>
<path style="fill:#cdc7be; stroke:none;" d="M363 492L366 495L363 492z"/>
<path style="fill:#595754; stroke:none;" d="M365 492L366 493L365 492z"/>
<path style="fill:#a59385; stroke:none;" d="M382 492L383 496L384 496L384 492L382 492z"/>
<path style="fill:#6e6d6d; stroke:none;" d="M400 492L401 493L400 492z"/>
<path style="fill:#605754; stroke:none;" d="M194 494L199 509C200.605 503.517 199.482 498.07 197 493L194 494z"/>
<path style="fill:#5b595a; stroke:none;" d="M201 493L201 497L202 497L203 493L201 493z"/>
<path style="fill:#5d5c5a; stroke:none;" d="M228 493L229 494L228 493z"/>
<path style="fill:#0d0d0d; stroke:none;" d="M233.667 493.333L234.333 493.667L233.667 493.333z"/>
<path style="fill:#837d7a; stroke:none;" d="M234 494L238 497L234 494z"/>
<path style="fill:#c6c6c7; stroke:none;" d="M238 493L238 494L241 494L238 493z"/>
<path style="fill:#867b75; stroke:none;" d="M259 493L258 497L264 499L259 493z"/>
<path style="fill:#604d49; stroke:none;" d="M266.333 493.667L266.667 494.333L266.333 493.667z"/>
<path style="fill:#9f8777; stroke:none;" d="M281 494L281 495C284.83 497.112 284.951 499.839 285 504C287.743 499.101 288.029 493.404 281 494z"/>
<path style="fill:#8b837e; stroke:none;" d="M318 494L318 495L323 495L318 494z"/>
<path style="fill:#8e807a; stroke:none;" d="M352 493L358 495L352 493z"/>
<path style="fill:#d4d3d5; stroke:none;" d="M202 494L202 501L203 501L202 494z"/>
<path style="fill:#5f5f5f; stroke:none;" d="M206 494L207 495L206 494z"/>
<path style="fill:#cbc6c9; stroke:none;" d="M222 497L235 500C231.401 496.561 225.783 491.171 222 497z"/>
<path style="fill:#f3f4f6; stroke:none;" d="M231 494L235 499L231 494z"/>
<path style="fill:#4f4c4a; stroke:none;" d="M238 494L238 495L241 496L238 494z"/>
<path style="fill:#755845; stroke:none;" d="M279 494L284 504C286.153 498.857 284.205 495.404 279 494z"/>
<path style="fill:#c9beb5; stroke:none;" d="M301 494L307 497L301 494z"/>
<path style="fill:#695854; stroke:none;" d="M317 494L321 496L321 495L317 494z"/>
<path style="fill:#a39891; stroke:none;" d="M392 494L391 503L399 501L399 500L394 499L394 494L392 494z"/>
<path style="fill:#3e3e3e; stroke:none;" d="M220 495L220 500L225 500L222 495L220 495z"/>
<path style="fill:#f1f1f3; stroke:none;" d="M223 496L231 501C229.503 496.741 227.53 494.993 223 496z"/>
<path style="fill:#c8bbb4; stroke:none;" d="M234 495L235 499C241.169 499.453 240.37 504.094 240 509L264 507L248 500L248 499L242 500L234 495z"/>
<path style="fill:#232222; stroke:none;" d="M238 495L241 497L238 495z"/>
<path style="fill:#8a786e; stroke:none;" d="M253 495L256 497L253 495z"/>
<path style="fill:#45342c; stroke:none;" d="M332 495L332 499L331 499L327 496C329.431 505.366 334.499 507.493 344 509L344 510L331 510L332 513L313 514L315 517L314 536L330 535L328 515C341.652 515.586 348.338 515.196 353 529L377 521.59L384.534 515.119L376 507L381 508L373 500L372 503C364.415 500.432 354.822 501.569 347 503L347 502L349 502L349 501C342.964 501 335.229 502.527 334 495L332 495z"/>
<path style="fill:#91796a; stroke:none;" d="M336 496L336 499L352 501L347 495L346 498L343 495L336 496z"/>
<path style="fill:#606161; stroke:none;" d="M203 496L203 497L207 497L203 496z"/>
<path style="fill:#826e61; stroke:none;" d="M241 496L242 500L244 500L245 499L245 497L241 496z"/>
<path style="fill:#beb6b6; stroke:none;" d="M246 498L249 497L246 498z"/>
<path style="fill:#f9f6f5; stroke:none;" d="M267 497C269.872 501.38 277.541 499.321 282 498L267 497z"/>
<path style="fill:#685042; stroke:none;" d="M305 499L305 500L328 501L327 496L305 499z"/>
<path style="fill:#83807e; stroke:none;" d="M216 497L216 498L220 498L216 497z"/>
<path style="fill:#a1938b; stroke:none;" d="M246 499L249 497L246 499z"/>
<path style="fill:#eae8ee; stroke:none;" d="M377 497L379 501L377 497z"/>
<path style="fill:#b8b6b6; stroke:none;" d="M381 497L383 502L381 497z"/>
<path style="fill:#ede8e7; stroke:none;" d="M203 498L211 527L215 525C215.283 529.033 216.343 531.159 220 533L219 528L222 531L225 523L219 526L215 522L220 520L220 519L213 519L216 505L222 505C221.38 501.107 219.79 499.144 216 498C212.699 503.086 207.636 499.151 203 498z"/>
<path style="fill:#616162; stroke:none;" d="M206 498L207 499L206 498z"/>
<path style="fill:#474747; stroke:none;" d="M213 498L213 500L216 500L216 498L213 498z"/>
<path style="fill:#b7b2b4; stroke:none;" d="M220 501L223 498L220 501z"/>
<path style="fill:#cdc2bd; stroke:none;" d="M225 498L225 499L228 500L225 498z"/>
<path style="fill:#928480; stroke:none;" d="M226 499L226 503L241 502L226 499z"/>
<path style="fill:#e5e4df; stroke:none;" d="M272 499L272 500L278 500L278 501L260 503L260 505L293 506L293 504L287 504L287 500L286 500L286 504L282 504L282 498L272 499z"/>
<path style="fill:#938f8d; stroke:none;" d="M355 500L361 499L355 500z"/>
<path style="fill:#9c9896; stroke:none;" d="M219 499L220 500L219 499z"/>
<path style="fill:#ffffff; stroke:none;" d="M222 499L222 501L224 501L224 499L222 499z"/>
<path style="fill:#746e69; stroke:none;" d="M225 499L225 503L226 503L225 499z"/>
<path style="fill:#ece9e9; stroke:none;" d="M245 500C247.212 503.284 249.274 502.111 251 499L245 500z"/>
<path style="fill:#dfe2e7; stroke:none;" d="M357 499L357 500L362 500L357 499z"/>
<path style="fill:#938b88; stroke:none;" d="M362 499L368 502L362 499z"/>
<path style="fill:#373637; stroke:none;" d="M208 500L208 501L212 501L208 500z"/>
<path style="fill:#d7d2d1; stroke:none;" d="M212 500L212 501L216 501L212 500z"/>
<path style="fill:#a6968c; stroke:none;" d="M249 504L255 500L249 504z"/>
<path style="fill:#947d6e; stroke:none;" d="M287 500L287 504C290.194 503.987 292.271 504.403 293 501L292 501L287 500z"/>
<path style="fill:#cdc3b8; stroke:none;" d="M304 500C308.805 506.808 320.893 503.587 328 504L328 501L304 500z"/>
<path style="fill:#887a73; stroke:none;" d="M312 500L312 501L327 501L312 500z"/>
<path style="fill:#75665e; stroke:none;" d="M383 500L385 510L381 510L386 515L394 510L391 506L390 509L385 500L383 500z"/>
<path style="fill:#6e6c6b; stroke:none;" d="M399 500L400 501L399 500z"/>
<path style="fill:#ab998f; stroke:none;" d="M222 501L222 506L217 506L220 509L213 513L213 519L219 518L219 517L216 514L227 507L229 504L229 503L224 501L222 501z"/>
<path style="fill:#020202; stroke:none;" d="M224 501L223 503L225 503L224 501z"/>
<path style="fill:#896e63; stroke:none;" d="M253 503L253 504L263 503L253 503z"/>
<path style="fill:#917f7a; stroke:none;" d="M283 501L282 504L283 501z"/>
<path style="fill:#fefaf9; stroke:none;" d="M393 502L394 508L399 509L400 501L393 502z"/>
<path style="fill:#989798; stroke:none;" d="M400 501L400 507L401 507L400 501z"/>
<path style="fill:#ddd0c8; stroke:none;" d="M226 505L235 503L229 508L229 509L237 509L239 502L226 505z"/>
<path style="fill:#baa595; stroke:none;" d="M239 502L237 509L240 509L241 502L239 502z"/>
<path style="fill:#887265; stroke:none;" d="M328 502L317 504L317 505C319.744 505.24 329.754 506.652 328 502z"/>
<path style="fill:#c5b7b0; stroke:none;" d="M385 502L390 509L391 506L397 510L392 513L396 520C400.236 519.145 400.437 516.274 397 514C401.443 510.799 398.202 508.483 394 508L393 503L385 502z"/>
<path style="fill:#f1eff0; stroke:none;" d="M224 507L224 510L227 510L227 511L216 516L229 512L239 513.405L265 510L265 507L229 509L229 508L235 503L224 507z"/>
<path style="fill:#c1af94; stroke:none;" d="M266 504L267 510L280 507L266 504z"/>
<path style="fill:#544137; stroke:none;" d="M293 504L293 508L278 508L278 509L293 509L293 513L275 513L275 514L285 515L284 519L287 520L288 520L288 515L292 519C295.355 516.069 294.628 507.88 293 504z"/>
<path style="fill:#493a35; stroke:none;" d="M305 504L306 513L302 513L308 518L308 512L315 512L312 510L312 509L327 510L327 508L317 508L317 506L321 506L305 504z"/>
<path style="fill:#ccc1ba; stroke:none;" d="M216 505L212 513L220 511L217 506L222 506L216 505z"/>
<path style="fill:#85756f; stroke:none;" d="M264 505L268 533L269 533C269.265 520.142 267.13 512.888 282 513L282 512L267 510L264 505z"/>
<path style="fill:#9e886f; stroke:none;" d="M269 505L269 507L271 507L271 505L269 505z"/>
<path style="fill:#bdad93; stroke:none;" d="M320 506L320 507L336 508L336 506L320 506z"/>
<path style="fill:#857061; stroke:none;" d="M254 506L254 507L262 507L254 506z"/>
<path style="fill:#dacbb3; stroke:none;" d="M280 506L280 507L293 507L280 506z"/>
<path style="fill:#7a5e49; stroke:none;" d="M317 506L327 508L327 510L312 509L312 510L315 512L309 513L309 514L332 513L331 510L344 510L344 509L338 506L337 506L317 506z"/>
<path style="fill:#9b9c9c; stroke:none;" d="M342 506L342 507L346 507L342 506z"/>
<path style="fill:#a6927c; stroke:none;" d="M274 510L274 511L293 513L293 512L280 511L280 510L293 510L293 509L278 509L278 508L293 508C287.049 505.503 279.313 506.655 274 510z"/>
<path style="fill:#a5a3a4; stroke:none;" d="M382 507L382 509L384 509L382 507z"/>
<path style="fill:#6b6a6b; stroke:none;" d="M399.333 507.667L399.667 508.333L399.333 507.667z"/>
<path style="fill:#cbc4c1; stroke:none;" d="M198 512L202 508L198 512z"/>
<path style="fill:#9b9390; stroke:none;" d="M197 510L196 513L197 510z"/>
<path style="fill:#f9f9fa; stroke:none;" d="M196 513L198 519L201 518L200 521L205 523L202 510L196 513z"/>
<path style="fill:#e8e1dc; stroke:none;" d="M214 513L219 510L214 513z"/>
<path style="fill:#ccc3bd; stroke:none;" d="M220 513L227 511L220 513z"/>
<path style="fill:#d7cfc7; stroke:none;" d="M246 511L246 512L259 512L246 511z"/>
<path style="fill:#aa9a93; stroke:none;" d="M259 510L259 514L260 514L261 512L264 514L264 510L259 510z"/>
<path style="fill:#594a42; stroke:none;" d="M264 510L267 516L266 510L264 510z"/>
<path style="fill:#d4c5b8; stroke:none;" d="M280 510L280 511L293 512L293 510L280 510z"/>
<path style="fill:#fffefd; stroke:none;" d="M348 530C349.49 538.198 354.445 539.932 362 539L362 538L360 536L365 537L364 532L371 534L370 530L372 532L378 533L378 529L383 530L383 527L391 527L382 533L384 536L378 541L389 539L395 549C396.442 546.698 399.302 545.997 400.583 543.687C403.756 537.96 397.783 530.188 396 525L395 525L393 527L392 523C398.012 521.713 394.515 516.26 392 513L397 510C389.073 510.654 387.099 515.301 380.985 519.214C371.348 525.383 359.55 530.052 348 530z"/>
<path style="fill:#d3d0d4; stroke:none;" d="M206 511L210 528L211 528L206 511z"/>
<path style="fill:#837f7e; stroke:none;" d="M346 511L346 512L350 512L346 511z"/>
<path style="fill:#9d887d; stroke:none;" d="M225 525L226 525L229 519L226 522L225 522L225 517L232 516L232 515L227 515L229 512C222.049 514.134 222.473 519.035 225 525z"/>
<path style="fill:#c0b5a8; stroke:none;" d="M227 514L227 515L245 516L248 515C243.129 511.033 233.052 513.335 227 514z"/>
<path style="fill:#9b8474; stroke:none;" d="M243 512L243 513L253 513L243 512z"/>
<path style="fill:#ece6e0; stroke:none;" d="M247 516L259 512L247 516z"/>
<path style="fill:#80716a; stroke:none;" d="M260 512L257 514L258 521L259 521L259 518L260 518L263 521L259 516L265 516L265 515L260 512z"/>
<path style="fill:#513d35; stroke:none;" d="M271 513L274 516L275 513L271 513z"/>
<path style="fill:#c8c0bd; stroke:none;" d="M195 513L195 517L196 517L195 513z"/>
<path style="fill:#70615b; stroke:none;" d="M273 513L273 514L280 515L280 514L273 513z"/>
<path style="fill:#adada9; stroke:none;" d="M313 513L313 514L316 514L313 513z"/>
<path style="fill:#8f7f7c; stroke:none;" d="M397 514L401 516C400.386 513.149 399.697 513.146 397 514z"/>
<path style="fill:#978f8a; stroke:none;" d="M194 514L194 521L195 521L197 516L194 514z"/>
<path style="fill:#f8f3ed; stroke:none;" d="M232 516L232 517C237.122 517 242.203 517.878 246 514L232 516z"/>
<path style="fill:#bfbabc; stroke:none;" d="M269 514L273 535L274 535L272 515L269 514z"/>
<path style="fill:#dacfc3; stroke:none;" d="M222 515L217 516L217 517L220 520L215 522L219 526L224 523L222 515z"/>
<path style="fill:#a7a1a2; stroke:none;" d="M250 515L249 521L251 524L252 524C252.139 519.735 252.708 517.303 257 516L250 515z"/>
<path style="fill:#d4c5b7; stroke:none;" d="M259 516L263 521L264 521L266 516L259 516z"/>
<path style="fill:#ecebea; stroke:none;" d="M270 515L272 518L272 515L270 515z"/>
<path style="fill:#91847f; stroke:none;" d="M272 515L272 520L273 520L272 515z"/>
<path style="fill:#e0dadc; stroke:none;" d="M274 515L275 520L282 518L274 515z"/>
<path style="fill:#bbb8ba; stroke:none;" d="M280 515L280 516L285 517L280 515z"/>
<path style="fill:#c8c7ca; stroke:none;" d="M288 515L293 537L289 537L293 541L292 515L288 515z"/>
<path style="fill:#cac8cb; stroke:none;" d="M309 515L312 520L312 515L309 515z"/>
<path style="fill:#8a837e; stroke:none;" d="M316 522L318 522L320 516C316.14 515.133 316.1 518.939 316 522z"/>
<path style="fill:#342420; stroke:none;" d="M328 515L329 522L332 522L332 533L340 531L339 523L345 519C344.465 523.238 342.958 527.377 347 530L347 523L351 523C348.022 513.694 336.497 515.175 328 515z"/>
<path style="fill:#685b56; stroke:none;" d="M193 516L197 529L204 531L203 528L209 526L209 525L194 521L193 516z"/>
<path style="fill:#b0a5a3; stroke:none;" d="M197 516L196 520L205 526L201 518L197 516z"/>
<path style="fill:#c5b4a8; stroke:none;" d="M225 517L225 522L226 522C229.38 516.476 237.282 518 243 518L225 517z"/>
<path style="fill:#877d7e; stroke:none;" d="M243 519L251 518L251 516L243 519z"/>
<path style="fill:#eae6e5; stroke:none;" d="M255 525L256 525L258 516C251.193 516.53 252.65 520.11 255 525z"/>
<path style="fill:#968373; stroke:none;" d="M291 516L291 520L292 520L291 516z"/>
<path style="fill:#5b5153; stroke:none;" d="M299 516L299 528C303.404 524.274 306.638 517.715 299 516z"/>
<path style="fill:#bab4b4; stroke:none;" d="M318 516L319 525L320 525L321 516L318 516z"/>
<path style="fill:#736c67; stroke:none;" d="M355 517L355 518L362 519L355 517z"/>
<path style="fill:#3b3836; stroke:none;" d="M400.333 516.667L400.667 517.333L400.333 516.667z"/>
<path style="fill:#706765; stroke:none;" d="M276 520L275 520L273 518L275 530L276 530L280 517L276 520z"/>
<path style="fill:#806d64; stroke:none;" d="M280 518L283 537L285 517L280 518z"/>
<path style="fill:#c9c8c9; stroke:none;" d="M305 517L306 521L307 521L305 517z"/>
<path style="fill:#998681; stroke:none;" d="M324 517L325 527L327 527C328.171 522.683 328.63 518.851 324 517z"/>
<path style="fill:#73635e; stroke:none;" d="M229 518L232 521L232 525L233 525L233 520C239.479 520.499 241.67 524.907 242 531L243 531L246 530L243 518L229 518z"/>
<path style="fill:#d5cfce; stroke:none;" d="M243 519L245 525L246 525L246 521L250 518L243 519z"/>
<path style="fill:#a09492; stroke:none;" d="M257 518L256 525L257 525L257 518z"/>
<path style="fill:#3d2f2a; stroke:none;" d="M259 518L257 526L260 526L258 530C259.047 534.817 262.652 536.28 267 538L267 518L265 518L264 524L259 518z"/>
<path style="fill:#978270; stroke:none;" d="M264 518L263 524L264 524L264 518z"/>
<path style="fill:#352825; stroke:none;" d="M279 518C274.882 523.725 274.286 534.166 282 537L279 518z"/>
<path style="fill:#423027; stroke:none;" d="M286 518C281.612 522.665 283.999 529.959 284 536L292 537C291.98 530.187 290.665 523.225 286 518z"/>
<path style="fill:#82828c; stroke:none;" d="M301 518L301 520L303 520L303 518L301 518z"/>
<path style="fill:#56443b; stroke:none;" d="M334 518L335 523L339 518L334 518z"/>
<path style="fill:#907b74; stroke:none;" d="M399 518L396 523L399 518z"/>
<path style="fill:#afa8a5; stroke:none;" d="M242 519L246 531L247 531L249 521L246 525L245 525L242 519z"/>
<path style="fill:#574438; stroke:none;" d="M343 519L341 531L346 531L345 519L343 519z"/>
<path style="fill:#d9cdbf; stroke:none;" d="M228 520L226 533L226 525L225 525L224 535L232 534L233 537C239.531 535.035 238.431 529.656 238 524L239 524L240 532L242 532C241.953 526.802 241.51 521.82 236 520L236 533L232 533L234 531L232 521L228 520z"/>
<path style="fill:#9d9693; stroke:none;" d="M233 520L233 530L234 530L235 520L233 520z"/>
<path style="fill:#eae7dd; stroke:none;" d="M235 520C234.048 523.594 234.333 525.382 237 528L235 520z"/>
<path style="fill:#322d2d; stroke:none;" d="M250 520C246.276 525.243 248.697 529.089 249 535L251 535L250 520z"/>
<path style="fill:#787674; stroke:none;" d="M292.667 520.333L293.333 520.667L292.667 520.333z"/>
<path style="fill:#7a706e; stroke:none;" d="M365 520L365 522L368 522L368 520L365 520z"/>
<path style="fill:#d2cbc8; stroke:none;" d="M252 521L256 535L257 535C256.999 529.349 257.302 524.265 252 521z"/>
<path style="fill:#533e3d; stroke:none;" d="M305 521L305 525L306 525L305 521z"/>
<path style="fill:#cec0b6; stroke:none;" d="M395 521L392 523L393 527L395 525L399 522L395 521z"/>
<path style="fill:#97846f; stroke:none;" d="M289.333 522.667L289.667 523.333L289.333 522.667z"/>
<path style="fill:#5d5654; stroke:none;" d="M308 522L311 534L312 534L308 522z"/>
<path style="fill:#d5cbcb; stroke:none;" d="M329 522L330 535L334 536C337.59 533.66 340.425 536.451 344 538L345 535L342 532L349 537L348 530L353 531L351 524L341 531C341.92 527.578 343.208 523.902 339 523C339.758 529.595 337.943 532.534 331 533L331 522L329 522z"/>
<path style="fill:#5b4f4b; stroke:none;" d="M331 522L331 533L332 533L331 522z"/>
<path style="fill:#c3c0c0; stroke:none;" d="M374 522L374 523L377 523L374 522z"/>
<path style="fill:#66584e; stroke:none;" d="M226 523L226 529L228 529L226 523z"/>
<path style="fill:#817a76; stroke:none;" d="M250 523L253 535L255 535L250 523z"/>
<path style="fill:#9d908d; stroke:none;" d="M270 523L271 537L275 534L270 523z"/>
<path style="fill:#6e6c6f; stroke:none;" d="M347 525L351 524L347 525z"/>
<path style="fill:#8d796a; stroke:none;" d="M238 524L236 537L240 539L243 533L240 532L238 524z"/>
<path style="fill:#685e5b; stroke:none;" d="M294 524L294 537L295 537L294 524z"/>
<path style="fill:#c5c7ca; stroke:none;" d="M307 524L307 536L309 536L307 524z"/>
<path style="fill:#9b9898; stroke:none;" d="M351.333 524.667L351.667 525.333L351.333 524.667z"/>
<path style="fill:#857f7c; stroke:none;" d="M209 525L208 529L213 531L209 525z"/>
<path style="fill:#b3aba9; stroke:none;" d="M213 525L211 528L213 532L217 531L217 530L215 525L213 525z"/>
<path style="fill:#ae987a; stroke:none;" d="M290 525L292 533L293 533L290 525z"/>
<path style="fill:#4f413a; stroke:none;" d="M203 528L204 530L204 531L197 527L196 527L193 556L200 556L203 552L202 546L205 547L204 543L210 546L208 548L216 551L216 547L238 549L238 547L209 541L210 538C207.279 533.92 207.151 530.479 209 526L203 528z"/>
<path style="fill:#857b78; stroke:none;" d="M228 526L226 529L226 530L230 531L228 526z"/>
<path style="fill:#c0b5af; stroke:none;" d="M251 526L251 535L245 535L245 536L251 536L254 540L255 536L257 538L260 538L256 532L255 532L253 535L251 526z"/>
<path style="fill:#887c79; stroke:none;" d="M257 526L258 535L259 535L258 530L260 526L257 526z"/>
<path style="fill:#615047; stroke:none;" d="M269 526L269 537L271 537L269 526z"/>
<path style="fill:#797779; stroke:none;" d="M339 526L339 530L340 530L339 526z"/>
<path style="fill:#847d79; stroke:none;" d="M396.333 526.667L396.667 527.333L396.333 526.667z"/>
<path style="fill:#8e7b6a; stroke:none;" d="M234 527L232 533L236 533L234 527z"/>
<path style="fill:#675a56; stroke:none;" d="M247 527L245 535L249 535L247 527z"/>
<path style="fill:#b6b8b9; stroke:none;" d="M313 527L312 537C314.789 534.563 314.361 530.244 313 527z"/>
<path style="fill:#675d5c; stroke:none;" d="M352 527L354 530L352 527z"/>
<path style="fill:#d3c8c3; stroke:none;" d="M383 527L383 530C380.054 529.254 378.689 528.803 378 532L382 531L382 533C386.274 532.067 388.985 531.008 391 527L383 527z"/>
<path style="fill:#6b5c56; stroke:none;" d="M207 528C207.125 531.878 207.502 534.072 211 536L207 528z"/>
<path style="fill:#bcaea8; stroke:none;" d="M219 528L224 533L219 528z"/>
<path style="fill:#554c4b; stroke:none;" d="M300 528L299 537L300 537L302 528L300 528z"/>
<path style="fill:#87807e; stroke:none;" d="M356 528L356 529L361 529L356 528z"/>
<path style="fill:#423631; stroke:none;" d="M243 529L246 534L243 529z"/>
<path style="fill:#3f312a; stroke:none;" d="M210 530L209 541L238 547L238 549L216 547L216 551C213.471 550.068 207.827 549.104 210 546L204 543L200 556L244 555.83L263 552L263 551L257 548L253 549C252.999 543.769 253.908 537.77 247 540L246 536L242 541C238.706 538.308 237.062 537.58 233 539L232 534C228.857 534.265 226.73 533.611 226 537L222 534L221 534L220 534L220 536L216 531L210 530z"/>
<path style="fill:#f3efee; stroke:none;" d="M226 533L229 530L226 533z"/>
<path style="fill:#5c4f49; stroke:none;" d="M275 530L275 537L280 537L280 536L277 530L275 530z"/>
<path style="fill:#d8d0cc; stroke:none;" d="M370 530L378 536L373 530L370 530z"/>
<path style="fill:#6f615a; stroke:none;" d="M216 531C216.671 533.281 217.634 536.074 220 534L221 534L222 534L226 537L216 531z"/>
<path style="fill:#473e39; stroke:none;" d="M306 531L306 536L307 536L306 531z"/>
<path style="fill:#f8f2e7; stroke:none;" d="M380 531L376 536L377 539L375 545L373 545L373 540L355 545L354 549L365 548L364 551L375 550L375 551L371 553L371 554L384 552L382 556L386 553L394 556L393 550L403 556L401 544L400 544L395 549L392 546L389 548L388 542L384 543L384 540L378 541L384 536L382 531L380 531z"/>
<path style="fill:#5d5c5c; stroke:none;" d="M398 531L399 532L398 531z"/>
<path style="fill:#fbfbfb; stroke:none;" d="M342 532L345 535L343 537L349 541C348.492 536.084 347.033 533.071 342 532z"/>
<path style="fill:#cbc0bc; stroke:none;" d="M355 532L355 535L357 535L357 532L355 532z"/>
<path style="fill:#e4dbdc; stroke:none;" d="M364 532L365 537L360 536L362 538L362 539L358 539L358 540L370 540L370 539L366 536L369 538L370 533L364 532z"/>
<path style="fill:#a88d77; stroke:none;" d="M378 532L378 536L379 536L380 532L378 532z"/>
<path style="fill:#cdc2be; stroke:none;" d="M241 541L243 539L243 538L241 535L244 534C239.56 533.338 240.114 537.907 241 541z"/>
<path style="fill:#c8bfb5; stroke:none;" d="M268 533L265 538L265 541L273 545L271 538L278 542C277.128 536.775 273.655 537.016 269 537L268 533z"/>
<path style="fill:#7d6b61; stroke:none;" d="M292 533L292 537L293 537L292 533z"/>
<path style="fill:#a08e84; stroke:none;" d="M371 533L369 538L366 536C366.764 539.582 369.636 539.647 373 540L373 545L375 545L371 537L376 536L371 533z"/>
<path style="fill:#83837f; stroke:none;" d="M400 533L401 534L400 533z"/>
<path style="fill:#eae3e1; stroke:none;" d="M241 538L245 534L241 538z"/>
<path style="fill:#ffffff; stroke:none;" d="M334 534C334.995 538.662 337.545 539.919 342 541C341.231 536.077 338.878 534.369 334 534z"/>
<path style="fill:#3d3c3b; stroke:none;" d="M401 534L401 537L402 537L401 534z"/>
<path style="fill:#887f7c; stroke:none;" d="M259 535L259 536L263 536L259 535z"/>
<path style="fill:#6f6d6b; stroke:none;" d="M314 536L314 537L319 536L314 536z"/>
<path style="fill:#b0aeaf; stroke:none;" d="M319 535L319 536L325 536L319 535z"/>
<path style="fill:#f3f1ef; stroke:none;" d="M307 536L319 546L316 538L327 544L326 538L333 541L333 542L330 542L330 543L333 544C336.109 531.2 314.529 536.318 307 536z"/>
<path style="fill:#b8aaa1; stroke:none;" d="M330 535L330 536L334 539L330 535z"/>
<path style="fill:#c3b0aa; stroke:none;" d="M208 538L211 536L208 538z"/>
<path style="fill:#d7d0d2; stroke:none;" d="M248 536L248 540L249 540L251 536L248 536z"/>
<path style="fill:#f3f2ef; stroke:none;" d="M255 536L257 542L257 536L255 536z"/>
<path style="fill:#f9f4f3; stroke:none;" d="M260 536L265 542C264.7 538.136 263.911 536.652 260 536z"/>
<path style="fill:#c5bdb8; stroke:none;" d="M281 541L282 541L287 537C283.357 535.733 281.623 537.408 281 541z"/>
<path style="fill:#b3a5a3; stroke:none;" d="M304 538L309 539L304 538z"/>
<path style="fill:#78655d; stroke:none;" d="M349 536L349 544L342 541L343 544L336 543L334 538C334.089 541.649 334.248 543.995 331 546L331 553L335 553L335 549L352 546L349 536z"/>
<path style="fill:#d3c3b2; stroke:none;" d="M371 537L374 541L375 541L377 539L371 537z"/>
<path style="fill:#706666; stroke:none;" d="M233 539L236 537L233 539z"/>
<path style="fill:#8c7b74; stroke:none;" d="M247 537L248 540L247 537z"/>
<path style="fill:#887976; stroke:none;" d="M258 537L257 541L265 545L258 537z"/>
<path style="fill:#f4f3f4; stroke:none;" d="M277 537L278 544L281 544L281 537L277 537z"/>
<path style="fill:#fefefe; stroke:none;" d="M284 537L289 543C289.33 538.704 288.325 537.346 284 537z"/>
<path style="fill:#6d6969; stroke:none;" d="M295 537L295 538L298 538L295 537z"/>
<path style="fill:#cabfbe; stroke:none;" d="M297 539L300 537L297 539z"/>
<path style="fill:#ffffff; stroke:none;" d="M300 537L305 542C304.423 538.526 303.474 537.577 300 537z"/>
<path style="fill:#c6c4c3; stroke:none;" d="M400.333 537.667L400.667 538.333L400.333 537.667z"/>
<path style="fill:#e0dcde; stroke:none;" d="M271 538L272 544L273 544L273 538L271 538z"/>
<path style="fill:#fafafb; stroke:none;" d="M294 538L294 543L298 542L297 538L294 538z"/>
<path style="fill:#c7b8af; stroke:none;" d="M316 538L316 539L320 539L316 538z"/>
<path style="fill:#81665c; stroke:none;" d="M326 538L327 543L328 543L328 538L326 538z"/>
<path style="fill:#ab9fa0; stroke:none;" d="M342 538C343.217 541.627 345.363 542.316 349 543L342 538z"/>
<path style="fill:#513e38; stroke:none;" d="M350 538L353 547L357 543L350 538z"/>
<path style="fill:#b7aaa5; stroke:none;" d="M352 538L352 540L354 540L354 538L352 538z"/>
<path style="fill:#8d8078; stroke:none;" d="M267 539L270 541L267 539z"/>
<path style="fill:#a7958c; stroke:none;" d="M282 539L288 544L282 539z"/>
<path style="fill:#614c41; stroke:none;" d="M297 539L299 547L282 541C281.356 545.057 279.756 546.478 276 548L274 543L270 546L270 542L265 541L265 545L258 540L257 544L254 540L253 540L253 549L257 548L263 551L263 552L246 555L246 556L259 556L259 553L279 553L277 556L315 554L315 553L300 552L300 551L305 550L305 548L300 539L297 539z"/>
<path style="fill:#d6d1d0; stroke:none;" d="M305 539L301 542L304 547L306 547L305 539z"/>
<path style="fill:#76615a; stroke:none;" d="M306 539L306 544L307 544L310 543L308 545L313 549L305 548C308.057 551.498 315.535 550.803 318 547L306 539z"/>
<path style="fill:#bbb0ae; stroke:none;" d="M309 539L319 547L319 546L309 539z"/>
<path style="fill:#82706c; stroke:none;" d="M317 539L317 540L320 540L317 539z"/>
<path style="fill:#beb3b1; stroke:none;" d="M320 539L317 540L319 546L320 546L322 544L320 539z"/>
<path style="fill:#9d8d8c; stroke:none;" d="M329 539L327 545L328 545L331 540L329 539z"/>
<path style="fill:#d8cac2; stroke:none;" d="M386 539L386 540L389 548L391 548C390.689 544.08 390.087 540.191 386 539z"/>
<path style="fill:#9d9c9c; stroke:none;" d="M401.333 539.667L401.667 540.333L401.333 539.667z"/>
<path style="fill:#918078; stroke:none;" d="M254 540L257 544L254 540z"/>
<path style="fill:#8d7b77; stroke:none;" d="M273 540L273 545L270 544C271.572 546.742 273.391 545.841 274 543L276 548C280.228 546.859 281.658 545.397 282 541L281 541L281 544L273 540z"/>
<path style="fill:#e0d8d5; stroke:none;" d="M289 540L289 546L290 546L289 540z"/>
<path style="fill:#84726e; stroke:none;" d="M290 540C290.166 545.007 294.603 550.026 299 545L290 540z"/>
<path style="fill:#938380; stroke:none;" d="M300 543L303 541C300.604 540.425 300.513 540.525 300 543z"/>
<path style="fill:#b1a19d; stroke:none;" d="M337 540L336 543L343 542L337 540z"/>
<path style="fill:#dcdade; stroke:none;" d="M338 540L342 543L338 540z"/>
<path style="fill:#bfb4af; stroke:none;" d="M354 540L359 545L362 540L354 540z"/>
<path style="fill:#b09682; stroke:none;" d="M384 543L388 540L384 543z"/>
<path style="fill:#d3d1d6; stroke:none;" d="M332 544L332 543L330 543L330 542L333 542C329.991 540.31 327.911 543.14 332 544z"/>
<path style="fill:#e0dad8; stroke:none;" d="M294 543L294 545L298 546L298 542L294 543z"/>
<path style="fill:#332b2a; stroke:none;" d="M307 542L307 549L313 549L310 543L307 542z"/>
<path style="fill:#cdc5c5; stroke:none;" d="M334 542L332 545L334 542z"/>
<path style="fill:#d3c7c4; stroke:none;" d="M346 542L349 544L346 542z"/>
<path style="fill:#605e5d; stroke:none;" d="M402 542L402 546L403 546L402 542z"/>
<path style="fill:#887972; stroke:none;" d="M297.333 543.667L297.667 544.333L297.333 543.667z"/>
<path style="fill:#bcbaba; stroke:none;" d="M401 543L402 552L403 552L401 543z"/>
<path style="fill:#9c8b86; stroke:none;" d="M302 544C302.683 547.594 306.044 549.461 307 545L306 545L304 547L302 544z"/>
<path style="fill:#8f7d78; stroke:none;" d="M320 544C322.065 546.859 323.663 546.903 327 546L320 544z"/>
<path style="fill:#c2b7b7; stroke:none;" d="M323 544L323 545L327 545L323 544z"/>
<path style="fill:#5c4e48; stroke:none;" d="M328 544C324.931 546.138 323.388 546.746 320 545L318 549L331 548L331 552L332 552L328 544z"/>
<path style="fill:#9e8f8e; stroke:none;" d="M329 544L329 545L334 546L329 544z"/>
<path style="fill:#a69fa0; stroke:none;" d="M202 546L202 550L205 549L205 547L204 546L202 546z"/>
<path style="fill:#ae8d71; stroke:none;" d="M350 546L351 549L344 550L344 551L355 551L355 547L350 546z"/>
<path style="fill:#b7a299; stroke:none;" d="M335 552C340.14 550.773 347.911 551.784 351 547C346.467 547 336.11 546.818 335 552z"/>
<path style="fill:#826f6b; stroke:none;" d="M323 548L323 549L331 550L323 548z"/>
<path style="fill:#97715d; stroke:none;" d="M355 551L362 556L359 548L355 551z"/>
<path style="fill:#ac9b9b; stroke:none;" d="M360 552L361 552L365 549C362.092 548.199 360.958 549.251 360 552z"/>
<path style="fill:#383838; stroke:none;" d="M403.333 548.667L403.667 549.333L403.333 548.667z"/>
<path style="fill:#9c8f8c; stroke:none;" d="M317 549L317 550L321 550L317 549z"/>
<path style="fill:#dad2ce; stroke:none;" d="M311 550L311 551L327 551L311 550z"/>
<path style="fill:#b29f9b; stroke:none;" d="M325 549L325 550L327 550L327 551L316 552L316 553L330 552L329 556L334 554L325 549z"/>
<path style="fill:#a28e83; stroke:none;" d="M300 551L300 552L315 553L315 554L299 554L299 555L320 554C313.578 550.188 307.213 549.661 300 551z"/>
<path style="fill:#e6d7c8; stroke:none;" d="M361 550L362 556L377 556L377 555L372 552L364 554L369 552L361 550z"/>
<path style="fill:#bea893; stroke:none;" d="M364 554L375 551C371.352 549.619 366.478 551.01 364 554z"/>
<path style="fill:#cdbaa8; stroke:none;" d="M393 553L398 553C396.604 549.855 393.819 549.178 393 553z"/>
<path style="fill:#f6eae4; stroke:none;" d="M330 555L330 556L358 554L358 552C347.46 551.913 339.725 549.711 330 555z"/>
<path style="fill:#d3c6b9; stroke:none;" d="M351 551L351 552L358 552L351 551z"/>
<path style="fill:#363636; stroke:none;" d="M403 551L403 554L404 554L403 551z"/>
<path style="fill:#846751; stroke:none;" d="M259 553L259 556C265.358 556 274.263 557.837 279 553L259 553z"/>
<path style="fill:#e7dfdb; stroke:none;" d="M307 555L307 556C313.327 556 327.234 558.881 330 552L307 555z"/>
<path style="fill:#d8c1a8; stroke:none;" d="M376 552L376 553L381 556L382 556L384 552L376 552z"/>
<path style="fill:#7a5c50; stroke:none;" d="M394 552L395 556L398 555L398 553L394 552z"/>
<path style="fill:#a28165; stroke:none;" d="M374 553L381 556L381 553L374 553z"/>
<path style="fill:#9a867c; stroke:none;" d="M386 553L390 556L390 555L386 553z"/>
<path style="fill:#bbaba6; stroke:none;" d="M394 553L394 556L395 556L394 553z"/>
<path style="fill:#967559; stroke:none;" d="M295 555L295 556L300 556L295 555z"/>
<path style="fill:#e1d1c2; stroke:none;" d="M349 555L349 556L360 556L349 555z"/>
<path style="fill:#a68873; stroke:none;" d="M397 556L400 556L399 554L397 556z"/>
<path style="fill:#6c6b6c; stroke:none;" d="M403.333 554.667L403.667 555.333L403.333 554.667z"/>
</svg>
