<?xml version="1.0" standalone="no"?>
<!DOCTYPE svg PUBLIC "-//W3C//DTD SVG 20010904//EN"
 "http://www.w3.org/TR/2001/REC-SVG-20010904/DTD/svg10.dtd">
<svg version="1.0" xmlns="http://www.w3.org/2000/svg"
 width="449.000000pt" height="556.000000pt" viewBox="0 0 449.000000 556.000000"
 preserveAspectRatio="xMidYMid meet">

<g transform="translate(0.000000,556.000000) scale(0.100000,-0.100000)"
fill="#000000" stroke="none">
<path d="M3861 4857 c4 -58 -3 -66 -51 -60 -65 9 -189 -16 -240 -48 -25 -15
-56 -32 -69 -37 -23 -8 -21 -10 37 -53 36 -25 60 -50 57 -57 -3 -7 -1 -11 4
-8 11 7 31 -39 30 -67 0 -13 -3 -16 -6 -8 -5 13 -63 -97 -63 -120 0 -5 -8 -26
-19 -47 -11 -22 -16 -45 -11 -57 7 -19 7 -19 19 0 12 20 12 20 6 0 -18 -52
-24 -79 -20 -84 3 -2 5 0 5 6 0 23 48 0 56 -26 7 -26 8 -26 14 9 l7 35 2 -38
c1 -36 -5 -45 -84 -121 -66 -65 -85 -89 -85 -110 0 -20 -4 -27 -14 -23 -7 3
-28 -3 -45 -14 -17 -10 -34 -19 -36 -19 -3 0 16 32 41 70 57 89 138 275 129
298 -5 14 -10 10 -25 -18 -11 -19 -19 -47 -20 -62 0 -16 -5 -28 -11 -28 -5 0
-8 -4 -5 -9 9 -13 -44 -120 -90 -182 -21 -30 -44 -63 -51 -74 -10 -16 -12 6
-13 120 0 77 -4 145 -8 150 -4 6 -32 18 -62 29 -85 28 -164 80 -195 128 -28
43 -28 43 26 -12 52 -54 53 -55 60 -30 4 14 8 21 9 15 1 -5 5 -1 9 10 5 12 4
28 -2 40 -6 11 -12 37 -13 57 -1 28 -8 43 -28 59 -38 30 -33 51 16 71 23 10
38 21 35 25 -4 4 -13 1 -19 -5 -7 -7 -21 -12 -32 -12 -35 -1 -243 -75 -239
-86 2 -5 -3 -18 -11 -29 -12 -17 -11 -27 11 -84 13 -37 29 -70 35 -76 8 -7 9
-5 4 5 -4 8 17 -11 48 -42 30 -32 59 -58 64 -58 6 0 12 -6 15 -13 2 -7 21 -21
41 -32 32 -18 38 -18 47 -5 9 13 10 13 6 -2 -4 -11 2 -18 20 -23 14 -3 30 -2
35 3 13 13 70 2 64 -13 -3 -8 5 -16 20 -19 13 -4 24 -11 24 -16 0 -13 2 -14
-103 16 -109 30 -177 71 -217 129 -16 23 -37 46 -47 49 -14 6 -13 2 5 -17 12
-13 22 -29 22 -35 0 -7 5 -12 10 -12 6 0 10 -6 10 -14 0 -8 8 -17 18 -20 11
-4 25 -17 32 -31 7 -14 21 -27 32 -31 10 -3 18 -9 18 -14 0 -17 55 -27 163
-29 30 -1 30 -1 26 -81 -1 -30 -2 -63 -3 -74 0 -15 -6 -17 -38 -13 -22 3 -36
1 -32 -4 9 -15 -46 -10 -62 6 -17 16 -89 21 -98 6 -7 -10 17 -21 46 -21 16 0
19 -5 14 -24 -7 -27 23 -56 56 -56 23 0 23 -22 0 -50 -15 -18 -25 -22 -46 -16
-22 5 -26 11 -20 29 14 47 -14 0 -31 -50 -17 -53 -43 -76 -31 -28 5 19 3 23
-9 19 -11 -5 -17 2 -21 24 -5 22 -14 32 -37 39 -21 6 -35 18 -41 35 -9 27 -9
28 39 94 15 20 13 22 -45 53 -50 27 -60 37 -60 59 -2 158 -37 281 -99 342 -17
17 -31 38 -31 45 0 7 -18 28 -41 45 -24 20 -38 38 -35 46 3 8 8 20 12 28 4 10
-12 15 -63 20 -37 4 -80 9 -95 11 -15 2 -45 -1 -67 -6 -24 -5 -50 -5 -64 0
-25 10 -25 10 -10 -21 13 -26 17 -28 25 -14 14 24 28 19 39 -14 12 -32 27 -38
48 -17 11 10 13 9 8 -6 -4 -10 -10 -54 -13 -98 -6 -72 -22 -111 -32 -81 -2 7
-8 12 -13 12 -6 0 -7 -5 -3 -11 4 -7 1 -10 -7 -7 -16 5 -47 57 -48 79 -1 9 -8
22 -16 29 -8 7 -18 28 -21 48 -4 20 -17 58 -29 85 l-23 48 -57 -82 c-99 -141
-115 -179 -115 -270 0 -72 16 -148 41 -192 5 -10 7 -22 4 -27 -3 -5 13 -8 35
-8 65 1 57 -9 -14 -17 -41 -4 -72 -2 -85 5 -11 6 -31 8 -45 4 -13 -3 -27 -1
-30 5 -4 6 -24 15 -44 20 -35 10 -132 92 -132 113 0 4 -8 8 -17 8 -19 0 -92
-32 -93 -41 0 -3 19 -12 43 -19 43 -12 139 -77 302 -204 50 -38 92 -71 95 -73
2 -2 7 -34 11 -71 4 -37 11 -96 14 -133 8 -65 7 -65 -26 -93 -27 -23 -39 -27
-73 -22 -23 3 -72 9 -111 15 -38 5 -73 7 -77 4 -10 -5 16 -55 38 -74 9 -8 35
-21 57 -29 36 -13 41 -20 52 -64 l12 -48 -31 -19 c-17 -10 -58 -50 -90 -89
l-60 -71 -61 6 c-55 6 -70 4 -133 -24 -52 -21 -87 -30 -125 -30 -29 1 -70 -6
-91 -15 -21 -9 -64 -16 -95 -16 -67 0 -74 -4 -95 -54 -15 -37 -22 -127 -10
-139 3 -3 20 3 37 13 18 10 94 27 172 39 77 12 187 34 245 50 57 16 107 28
111 26 3 -3 9 -22 12 -44 2 -21 14 -52 26 -68 14 -19 23 -50 27 -88 3 -33 7
-66 9 -72 2 -7 42 -31 87 -53 75 -36 94 -41 205 -50 140 -12 183 -5 235 42 27
24 68 38 68 23 0 -3 -36 -44 -81 -92 -99 -107 -139 -164 -139 -195 0 -37 28
-120 49 -145 15 -18 51 -39 201 -120 14 -7 33 -13 42 -13 30 0 98 31 98 45 0
7 6 15 14 18 7 3 16 23 20 46 3 24 14 46 27 55 16 10 22 26 23 60 1 35 8 53
33 80 25 29 32 47 38 100 9 88 19 121 36 121 25 0 46 -174 53 -450 3 -82 9
-220 15 -305 6 -85 11 -270 12 -410 1 -140 2 -282 3 -315 2 -143 -9 -455 -16
-455 -4 0 -10 5 -13 10 -3 6 -14 10 -22 10 -14 0 -13 -4 5 -20 12 -12 22 -25
22 -30 0 -19 -18 -10 -44 21 -25 29 -26 30 -26 7 0 -13 -4 -29 -8 -36 -10 -15
-42 -5 -42 13 0 8 -5 17 -11 20 -6 4 -9 0 -7 -11 4 -22 17 -38 38 -46 9 -3 16
-18 18 -33 3 -44 16 -53 22 -15 4 19 2 41 -3 48 -6 7 -7 16 -3 19 10 11 23
-14 30 -58 5 -33 10 -38 29 -36 16 1 23 -4 25 -20 3 -22 1 -23 -74 -23 -97 0
-93 -8 6 -12 59 -2 75 -6 75 -18 0 -12 -14 -15 -73 -13 -41 1 -80 7 -88 14 -8
6 -14 9 -14 6 0 -3 -16 1 -34 8 -34 15 -55 7 -41 -15 3 -5 2 -10 -3 -10 -12 0
-25 47 -17 60 4 6 -1 10 -10 10 -11 0 -14 -6 -10 -23 4 -12 2 -35 -4 -49 -8
-21 -7 -28 6 -32 10 -4 13 -12 8 -24 -4 -9 -8 -23 -8 -29 0 -15 -17 -18 -17
-3 0 5 -9 18 -21 29 -13 12 -17 21 -10 26 6 3 11 13 11 21 0 14 -2 13 -16 0
-9 -9 -13 -24 -9 -35 3 -11 -1 -26 -10 -35 -9 -9 -14 -20 -11 -25 4 -5 8 -33
11 -61 6 -62 10 -69 33 -65 9 1 25 -4 34 -12 26 -23 38 -7 38 55 0 31 4 64 9
71 6 9 6 22 0 33 -6 11 -9 32 -7 47 3 26 5 28 28 18 14 -5 51 -9 83 -9 31 1
57 -3 57 -8 0 -6 -7 -10 -15 -10 -13 0 -15 -10 -11 -63 l6 -62 -18 63 c-17 61
-17 62 -39 47 -20 -14 -23 -14 -32 2 -9 16 -10 16 -11 -4 0 -13 5 -23 10 -23
6 0 10 -33 10 -79 l0 -79 90 1 c67 1 90 5 90 14 0 8 -11 46 -25 85 -31 89 -32
118 -5 118 15 0 20 -7 20 -24 0 -14 5 -28 10 -31 6 -3 10 -41 10 -85 0 -90 9
-99 67 -75 33 14 35 17 19 28 -11 8 -15 19 -10 30 10 27 29 15 32 -21 2 -18 8
-32 13 -32 10 0 4 131 -8 174 -4 14 -1 17 10 13 10 -3 17 1 20 14 3 10 12 19
20 19 19 0 41 -26 28 -34 -5 -4 -8 -23 -5 -44 4 -31 3 -33 -5 -14 -14 30 -22
28 -16 -5 4 -23 1 -20 -15 12 -13 26 -19 31 -15 15 3 -14 8 -50 11 -81 6 -48
9 -56 25 -52 12 4 19 17 22 42 3 28 4 24 5 -18 2 -46 4 -52 20 -46 9 4 41 9
70 11 29 2 57 6 62 9 6 3 7 31 3 65 -4 42 -2 60 6 60 7 0 11 -20 11 -55 0 -53
1 -55 28 -55 42 0 57 15 57 56 0 23 5 39 14 42 11 4 13 -4 8 -37 -5 -41 -4
-42 21 -39 20 2 28 9 30 28 6 46 10 52 32 40 12 -6 20 -21 20 -36 0 -21 4 -24
20 -19 12 4 37 9 58 11 58 7 241 100 254 129 6 14 14 25 18 25 4 0 10 10 13
21 6 22 -11 59 -26 59 -4 0 -5 -5 -1 -12 4 -7 3 -8 -4 -4 -7 4 -9 18 -6 31 5
20 3 23 -15 18 -17 -4 -21 -1 -21 20 0 14 4 28 10 32 5 3 6 13 3 22 -4 9 1 19
10 25 10 5 17 17 17 28 0 10 13 30 30 43 25 21 29 30 24 56 -4 17 -11 31 -16
31 -28 0 -59 -38 -87 -109 -27 -67 -30 -83 -20 -104 6 -14 9 -34 5 -43 -6 -15
-12 -12 -46 21 -24 24 -40 33 -40 25 -1 -12 -3 -12 -13 1 -18 24 -66 33 -73
14 -5 -13 -9 -13 -27 0 -14 10 -24 11 -33 4 -9 -7 -16 -4 -27 11 l-15 22 -7
-22 c-7 -21 -30 -23 -30 -2 0 5 -3 14 -7 18 -12 12 -9 26 4 18 7 -4 8 -3 4 4
-10 17 -26 15 -26 -3 0 -22 -18 -18 -25 5 -11 36 -32 17 -26 -23 2 -12 -17 -8
-33 9 -17 17 -41 10 -29 -9 4 -7 0 -7 -10 1 -9 8 -19 22 -22 33 -12 35 -27 20
-23 -22 4 -41 3 -42 -38 -60 -34 -15 -57 -18 -123 -13 -50 4 -81 2 -81 -4 0
-10 128 -24 191 -21 42 2 62 -8 55 -26 -5 -14 14 -25 46 -25 10 0 26 -7 34
-15 13 -13 12 -14 -13 -10 -26 5 -89 11 -137 14 -26 1 -14 12 26 21 23 6 6 8
-54 6 -48 -2 -89 1 -90 5 -2 5 -19 10 -39 11 -29 2 -36 7 -34 20 2 10 0 20 -6
23 -5 4 -9 17 -9 31 0 14 -4 22 -10 19 -19 -12 -10 14 15 41 22 24 25 25 26 8
1 -10 0 -27 -1 -38 -1 -11 3 -15 9 -12 6 4 11 0 11 -8 0 -19 13 -20 42 -5 15
8 19 8 14 0 -5 -8 10 -11 46 -10 37 0 47 3 33 8 -11 5 -24 6 -29 3 -5 -3 -6 0
-3 5 4 6 0 16 -8 23 -8 7 -15 23 -15 36 0 12 -5 26 -12 30 -8 5 -9 0 -5 -15 7
-29 -1 -51 -19 -51 -21 0 -74 79 -74 110 0 20 -6 30 -22 34 -18 6 -20 9 -8 14
17 8 17 10 5 66 -6 28 -4 40 6 47 12 8 12 11 -1 19 -12 7 -12 12 -2 22 16 16
15 28 -3 28 -11 0 -12 5 -5 26 6 14 8 29 5 34 -3 5 1 11 7 13 10 4 10 6 1 6
-8 1 -11 11 -7 31 4 18 1 36 -6 45 -9 10 -9 15 -1 15 6 0 11 9 11 20 0 11 -5
20 -11 20 -5 0 -7 5 -4 10 3 6 1 10 -5 10 -7 0 -9 34 -4 112 6 118 7 137 4
178 -1 14 3 47 9 73 6 28 7 56 2 65 -4 10 -7 58 -5 107 2 50 4 95 4 100 0 11
-7 92 -16 185 -11 107 -2 274 20 368 5 20 4 23 -3 12 -7 -10 -9 15 -7 80 2 52
5 95 6 95 7 0 12 68 14 175 3 115 10 202 22 241 2 9 27 26 55 39 l51 24 18
-24 18 -24 -9 45 c-4 24 -8 47 -9 52 0 4 -9 2 -20 -5 -27 -17 -42 0 -32 37 10
36 32 39 48 6 l12 -24 4 24 c2 19 9 24 31 23 16 -1 27 4 27 12 0 7 2 19 5 26
4 10 -7 19 -34 28 -51 16 -58 39 -31 93 18 36 29 45 66 56 25 8 50 19 57 25
14 13 41 13 117 3 30 -5 73 -10 95 -12 54 -4 85 -15 85 -29 0 -17 70 -17 103
1 30 15 184 137 200 158 4 5 6 20 4 32 -2 12 0 24 5 25 5 2 2 12 -7 23 -15 20
-15 20 -27 0 -15 -25 -65 -73 -92 -87 -20 -10 -20 -10 -4 8 15 17 48 84 48 98
0 5 -54 -8 -100 -24 -61 -22 -76 -43 -40 -55 11 -4 18 -10 15 -15 -3 -4 2 -14
11 -21 14 -12 14 -14 -2 -19 -25 -9 -113 15 -127 34 -7 8 -25 17 -42 19 -27 4
-28 5 -8 12 21 7 20 9 -22 61 -24 29 -50 72 -56 94 -12 41 -39 75 -75 96 -15
9 -10 10 22 1 36 -9 45 -7 85 15 24 14 62 31 84 38 22 7 58 24 80 37 22 13 54
30 70 38 17 7 37 22 46 32 30 35 78 121 105 189 14 38 32 76 40 84 22 26 74
150 95 229 40 152 2 330 -84 395 -48 37 -59 34 -56 -17z m-796 -347 c3 -5 -3
-10 -14 -10 -10 0 -28 -3 -38 -6 -16 -5 -16 -4 1 10 23 18 42 21 51 6z m542
-247 c-3 -10 -5 -2 -5 17 0 19 2 27 5 18 2 -10 2 -26 0 -35z m-1263 -62 c20
-21 26 -35 21 -50 -3 -12 -11 -21 -17 -21 -6 0 -8 -10 -5 -22 5 -21 4 -20 -14
5 -12 15 -27 27 -34 27 -7 0 -17 14 -20 32 -6 24 -3 35 11 45 24 18 26 17 58
-16z m-82 -128 c34 -42 54 -74 45 -70 -17 6 -16 4 2 -21 11 -15 33 -40 50 -55
29 -26 33 -57 8 -57 -19 0 -102 34 -109 44 -11 15 -10 58 0 52 5 -3 -2 16 -15
41 -12 26 -23 53 -23 60 0 8 -9 32 -21 54 -28 55 -12 43 63 -48z m75 -265 c38
-37 41 -54 12 -63 -21 -7 -21 -7 3 -32 12 -14 37 -34 53 -44 33 -21 23 -26
-11 -6 -50 29 -104 111 -104 158 0 26 9 24 47 -13z m590 -84 c36 -62 30 -184
-9 -184 -4 0 -18 12 -31 26 -20 21 -26 41 -31 107 -7 83 -2 97 33 93 9 -2 26
-20 38 -42z m-642 -96 c5 -19 3 -28 -5 -28 -6 0 -10 6 -7 13 2 6 0 23 -5 37
-6 17 -6 22 1 15 5 -5 13 -22 16 -37z m826 -5 c0 -24 1 -25 8 -8 7 17 10 13
20 -23 7 -23 16 -40 21 -37 6 4 7 -1 3 -11 -4 -11 -8 -13 -11 -6 -4 12 -62 17
-62 6 0 -4 8 -12 17 -19 20 -15 19 -101 -2 -141 l-13 -26 -7 30 c-3 17 -18 38
-31 47 -24 15 -27 15 -44 0 -10 -9 -23 -14 -28 -11 -5 3 -12 -6 -15 -19 -2
-14 -2 -23 1 -21 2 3 18 -6 34 -19 16 -14 33 -25 38 -25 5 0 10 -7 12 -15 3
-13 6 -13 32 0 40 21 45 19 37 -12 -5 -17 -14 -27 -22 -25 -35 9 -34 10 -38
-33 0 -8 -8 -15 -17 -15 -14 0 -14 2 1 16 9 9 13 19 9 23 -4 3 -9 0 -11 -7 -3
-6 -9 -10 -14 -6 -5 3 -4 14 2 27 12 21 12 21 -14 4 -36 -23 -46 -22 -58 11
-12 31 -2 183 11 162 6 -9 13 -4 24 19 9 17 14 36 11 42 -4 5 -1 17 6 25 9 11
9 18 1 26 -13 13 -12 14 -34 -32 l-16 -35 5 45 c5 46 26 71 65 77 21 3 21 -4
3 -52 -5 -12 4 -6 23 15 18 19 32 38 32 43 0 4 5 7 10 7 6 0 10 -12 11 -27z
m209 -83 l25 -21 -25 12 c-29 13 -70 49 -70 60 0 4 10 -1 23 -12 12 -10 33
-28 47 -39z m-1010 12 c-8 -2 -28 -16 -45 -30 l-30 -27 31 35 c17 19 29 41 27
49 -3 8 3 6 14 -5 16 -16 16 -20 3 -22z m1180 -28 c0 -2 -12 -4 -26 -4 -14 0
-23 4 -20 9 6 8 46 4 46 -5z m-960 -14 c8 -5 11 -10 5 -10 -5 0 -17 5 -25 10
-8 5 -10 10 -5 10 6 0 17 -5 25 -10z m647 3 c-4 -3 -2 -12 5 -20 8 -11 7 -12
-6 -7 -18 7 -22 34 -4 34 6 0 8 -3 5 -7z m-756 -40 c13 -16 12 -17 -3 -4 -10
7 -18 15 -18 17 0 8 8 3 21 -13z m755 -52 c-9 -17 -20 -31 -25 -31 -11 0 -1
51 13 66 20 22 28 -3 12 -35z m-250 -14 c4 -27 3 -42 -5 -45 -6 -2 -8 -9 -5
-14 4 -7 2 -8 -5 -4 -6 4 -9 12 -6 17 4 5 1 9 -6 9 -7 0 -9 -11 -5 -32 17 -91
18 -166 3 -197 -11 -22 -14 -48 -11 -84 6 -52 6 -52 -10 -23 -9 15 -16 38 -16
50 0 31 -9 37 -33 25 -12 -7 -17 -7 -13 -1 3 5 -1 13 -10 16 -18 7 -44 66 -44
101 0 22 8 30 40 42 45 18 47 23 22 46 -15 14 -21 15 -44 3 -25 -13 -29 -12
-67 23 -47 43 -51 65 -18 92 18 15 38 18 124 17 l102 0 7 -41z m-390 -190 c1
-7 -5 -18 -12 -25 -12 -10 -14 -10 -14 2 0 37 21 56 26 23z m64 -25 l19 -37 1
38 c0 20 5 37 11 37 7 0 31 -19 54 -42 24 -24 59 -58 79 -76 20 -18 36 -37 36
-42 0 -6 -41 -8 -102 -5 -57 3 -106 5 -110 5 -5 0 -8 6 -8 13 0 8 -9 22 -20
32 -22 20 -26 59 -10 100 12 31 24 26 50 -23z m344 -44 c-10 -64 -27 -84 -19
-23 4 28 9 53 12 58 10 17 13 4 7 -35z m-21 -118 c-3 -11 -9 -17 -14 -15 -10
7 -1 35 11 35 5 0 6 -9 3 -20z m0 -292 c5 -57 2 -67 -14 -51 -17 17 -28 80
-16 92 19 19 24 12 30 -41z m-158 -38 c-3 -5 -15 -10 -26 -10 -11 0 -17 5 -14
10 3 6 15 10 26 10 11 0 17 -4 14 -10z m194 -373 c6 -8 8 -17 4 -20 -7 -8 -33
11 -33 24 0 13 16 11 29 -4z m6 -1567 c3 -5 1 -10 -4 -10 -6 0 -11 5 -11 10 0
6 2 10 4 10 3 0 8 -4 11 -10z m520 -180 c4 -6 -7 -10 -27 -9 -31 1 -32 1 -8 9
14 4 26 8 27 9 1 1 5 -3 8 -9z m168 -15 c52 -13 27 -20 -38 -11 -36 6 -65 13
-65 17 0 8 60 5 103 -6z m-196 -71 c-3 -3 -12 -4 -19 -1 -8 3 -5 6 6 6 11 1
17 -2 13 -5z m378 -14 c3 -5 1 -10 -4 -10 -6 0 -11 5 -11 10 0 6 2 10 4 10 3
0 8 -4 11 -10z m-789 -24 c2 -23 0 -24 -24 -13 -20 9 -22 13 -9 15 9 2 17 8
17 13 0 21 15 7 16 -15z m451 -12 c-3 -3 -12 -4 -19 -1 -8 3 -5 6 6 6 11 1 17
-2 13 -5z m-397 -8 c0 -11 -19 -15 -25 -6 -3 5 1 10 9 10 9 0 16 -2 16 -4z
m57 -12 c-3 -3 -12 -4 -19 -1 -8 3 -5 6 6 6 11 1 17 -2 13 -5z m49 -46 c-3
-13 -6 -34 -6 -47 0 -32 -17 -16 -29 26 -10 35 -6 43 22 43 15 0 18 -5 13 -22z
m64 -32 c0 -11 -4 -28 -10 -36 -7 -11 -11 -9 -19 12 -13 35 -4 73 15 57 8 -6
14 -21 14 -33z"/>
<path d="M2310 3775 c0 -5 5 -17 10 -25 5 -8 10 -10 10 -5 0 6 -5 17 -10 25
-5 8 -10 11 -10 5z"/>
<path d="M3050 3560 c0 -5 7 -10 16 -10 8 0 12 5 9 10 -3 6 -10 10 -16 10 -5
0 -9 -4 -9 -10z"/>
<path d="M3260 4813 c0 -5 5 -15 10 -23 8 -12 10 -11 10 8 0 12 -4 22 -10 22
-5 0 -10 -3 -10 -7z"/>
<path d="M3360 4785 c32 -18 40 -18 40 0 0 10 -10 15 -32 15 l-33 -1 25 -14z"/>
<path d="M3350 4740 c0 -5 5 -10 10 -10 6 0 10 5 10 10 0 6 -4 10 -10 10 -5 0
-10 -4 -10 -10z"/>
<path d="M3416 4707 c3 -9 1 -24 -6 -32 -12 -14 -7 -20 14 -16 4 1 14 -6 22
-16 10 -13 10 -7 -2 22 -9 22 -20 45 -26 50 -6 7 -7 4 -2 -8z"/>
<path d="M3390 4701 c0 -6 4 -13 10 -16 6 -3 7 1 4 9 -7 18 -14 21 -14 7z"/>
<path d="M3276 4284 c2 -37 8 -72 15 -78 9 -8 10 4 6 51 -7 89 -24 111 -21 27z"/>
<path d="M1741 4263 c-36 -18 -98 -93 -107 -130 -7 -26 12 -56 29 -46 6 4 3
12 -9 20 -18 13 -17 14 6 8 22 -5 27 -2 38 29 7 20 10 40 7 46 -3 5 -1 10 4
10 6 0 14 1 19 1 9 2 55 69 50 74 -2 2 -18 -3 -37 -12z"/>
<path d="M1801 4240 c0 -8 4 -22 9 -30 12 -18 12 -2 0 25 -6 13 -9 15 -9 5z"/>
<path d="M1821 4144 c14 -33 40 -66 46 -60 7 6 -24 61 -42 76 -15 12 -15 11
-4 -16z"/>
<path d="M1890 4072 c0 -16 91 -70 128 -75 38 -6 40 1 8 36 -30 32 -127 63
-110 35 5 -9 2 -9 -9 1 -9 7 -17 9 -17 3z"/>
<path d="M3065 3940 c4 -6 -7 -13 -24 -16 -17 -4 -28 -10 -25 -15 3 -5 13 -5
24 1 10 5 31 10 46 10 27 0 27 1 8 15 -22 17 -38 20 -29 5z"/>
<path d="M3138 3903 c6 -2 10 -9 7 -14 -4 -5 1 -6 10 -2 13 5 14 7 3 14 -7 5
-17 8 -23 8 -5 0 -4 -3 3 -6z"/>
<path d="M3010 3812 c0 -6 5 -14 10 -17 6 -3 10 -18 11 -33 l1 -27 8 25 c10
32 12 55 3 47 -3 -4 -12 -2 -20 4 -9 8 -13 8 -13 1z"/>
<path d="M3886 3511 c-7 -10 17 -21 42 -21 15 1 14 3 -2 15 -23 17 -33 19 -40
6z"/>
<path d="M3980 3471 c0 -9 -8 -11 -27 -6 -26 6 -26 5 -10 -7 16 -12 18 -19 9
-52 -11 -37 -10 -38 12 -34 15 3 23 0 23 -9 0 -8 -7 -11 -14 -8 -10 3 -13 0
-9 -13 5 -16 2 -18 -26 -14 -30 5 -32 3 -19 -12 17 -20 13 -20 -32 -1 -20 8
-46 15 -57 15 -11 0 -20 -7 -20 -15 0 -8 5 -15 12 -15 6 0 8 -3 5 -6 -10 -11
-38 18 -33 33 4 9 -5 13 -34 13 -22 0 -40 -5 -40 -11 0 -5 4 -8 9 -4 6 3 15
-4 21 -15 6 -12 23 -26 38 -31 21 -8 23 -12 12 -19 -12 -8 -9 -10 10 -11 17
-1 19 -3 8 -6 -40 -10 -13 -18 60 -18 87 0 122 19 122 65 0 16 11 34 32 52
l33 27 -19 35 c-22 41 -66 86 -66 67z"/>
<path d="M3460 3380 c-8 -5 -10 -10 -5 -10 6 0 17 5 25 10 8 5 11 10 5 10 -5
0 -17 -5 -25 -10z"/>
<path d="M3345 3340 c3 -5 8 -10 11 -10 2 0 4 5 4 10 0 6 -5 10 -11 10 -5 0
-7 -4 -4 -10z"/>
<path d="M3390 3344 c66 -12 72 -15 66 -30 -9 -23 28 -52 91 -70 32 -9 64 -21
71 -26 9 -8 12 -5 12 9 0 15 -12 25 -43 37 -24 9 -58 30 -75 47 -26 25 -41 31
-89 34 -32 2 -47 2 -33 -1z"/>
<path d="M3663 3333 c9 -2 25 -2 35 0 9 3 1 5 -18 5 -19 0 -27 -2 -17 -5z"/>
<path d="M3758 3233 c6 -2 18 -2 25 0 6 3 1 5 -13 5 -14 0 -19 -2 -12 -5z"/>
<path d="M3268 2911 c71 -62 191 -121 246 -121 40 0 51 -5 79 -34 18 -19 50
-45 73 -59 l41 -25 -18 36 c-11 20 -19 44 -19 54 0 28 -40 45 -120 51 -77 6
-170 32 -170 48 0 5 -6 9 -14 9 -8 0 -25 12 -38 28 -23 27 -68 52 -91 52 -7
-1 8 -18 31 -39z"/>
<path d="M3730 2632 c0 -22 18 -48 45 -66 25 -17 26 -17 16 1 -19 34 -60 78
-61 65z"/>
<path d="M3874 2526 c-16 -18 17 -62 40 -53 21 8 20 36 -1 53 -22 16 -25 16
-39 0z"/>
<path d="M3200 657 c0 -28 17 -41 45 -35 13 2 10 9 -14 32 l-31 30 0 -27z"/>
<path d="M1956 625 c-4 -14 -2 -42 3 -63 6 -20 13 -49 16 -64 3 -19 10 -25 23
-21 13 3 21 -5 30 -30 7 -18 12 -42 12 -53 0 -10 5 -26 10 -34 11 -18 3 53
-10 85 -18 45 -30 82 -37 120 -4 22 -8 43 -9 48 -1 4 -2 14 -3 22 -2 25 -28
17 -35 -10z"/>
<path d="M2011 604 c0 -11 3 -14 6 -6 3 7 2 16 -1 19 -3 4 -6 -2 -5 -13z"/>
<path d="M2590 611 c0 -10 19 -25 25 -20 1 2 -3 10 -11 17 -8 7 -14 8 -14 3z"/>
<path d="M2410 593 c1 -19 16 -32 29 -24 11 7 9 11 -8 20 -11 7 -21 8 -21 4z"/>
<path d="M3020 590 c0 -5 5 -10 10 -10 6 0 10 5 10 10 0 6 -4 10 -10 10 -5 0
-10 -4 -10 -10z"/>
<path d="M2356 563 c-9 -22 -9 -22 24 -21 36 1 38 9 6 24 -20 9 -26 9 -30 -3z"/>
<path d="M2540 530 c-8 -5 -10 -10 -5 -10 6 0 17 5 25 10 8 5 11 10 5 10 -5 0
-17 -5 -25 -10z"/>
<path d="M2588 493 c6 -2 18 -2 25 0 6 3 1 5 -13 5 -14 0 -19 -2 -12 -5z"/>
<path d="M2180 485 c0 -3 7 -14 16 -23 15 -14 16 -14 13 3 -4 17 -29 35 -29
20z"/>
<path d="M3910 459 c0 -5 5 -7 10 -4 6 3 10 8 10 11 0 2 -4 4 -10 4 -5 0 -10
-5 -10 -11z"/>
<path d="M2288 403 c6 -2 18 -2 25 0 6 3 1 5 -13 5 -14 0 -19 -2 -12 -5z"/>
<path d="M2488 393 c7 -3 16 -2 19 1 4 3 -2 6 -13 5 -11 0 -14 -3 -6 -6z"/>
<path d="M2232 370 c0 -14 2 -19 5 -12 2 6 2 18 0 25 -3 6 -5 1 -5 -13z"/>
<path d="M2305 371 c-19 -8 -19 -8 3 -20 14 -7 22 -8 22 -1 0 16 50 12 67 -6
9 -8 18 -35 21 -60 4 -35 2 -44 -11 -44 -9 0 -19 -5 -22 -10 -4 -7 2 -9 19 -4
15 3 32 2 39 -4 6 -5 24 -10 40 -10 l27 1 0 73 c0 41 -4 74 -8 74 -19 0 -32
-27 -32 -70 l0 -45 -14 27 c-8 15 -22 37 -30 49 -11 16 -12 27 -5 41 9 16 5
18 -43 17 -29 0 -62 -4 -73 -8z"/>
<path d="M1954 328 c25 -86 27 -130 10 -186 -9 -31 -20 -76 -24 -100 l-7 -42
536 0 c350 0 531 4 521 10 -10 7 15 10 80 11 98 1 94 15 -5 19 -73 2 -29 16
76 25 46 3 101 8 121 9 31 3 37 0 42 -20 8 -30 46 -33 46 -4 0 18 11 25 34 21
5 -1 21 2 35 8 14 5 46 12 70 15 39 6 43 5 37 -11 -5 -12 2 -9 18 9 l26 27
-34 35 c-18 20 -36 36 -39 36 -3 0 -4 -16 -3 -34 4 -42 -14 -52 -42 -25 -23
20 -37 25 -27 9 11 -18 -5 -28 -33 -21 -15 4 -27 15 -27 24 0 9 -6 22 -14 29
-11 11 -12 9 -6 -10 17 -57 -31 -85 -60 -34 -11 19 -14 21 -10 6 3 -12 -1 -26
-9 -33 -16 -14 -56 -6 -56 11 0 6 -8 0 -18 -13 -17 -20 -21 -21 -40 -7 -12 8
-19 17 -16 21 7 6 -42 40 -63 43 -11 2 -13 -6 -9 -37 3 -21 2 -39 -3 -39 -13
0 -61 66 -54 74 4 3 -1 6 -9 6 -19 0 -29 -44 -14 -61 8 -9 7 -10 -7 -5 -10 3
-28 6 -38 6 -11 0 -18 4 -15 9 7 11 -3 41 -14 41 -5 0 -10 -12 -12 -27 l-3
-28 -28 27 c-33 33 -47 35 -47 9 0 -31 -14 -32 -50 -6 -41 30 -44 31 -37 5 7
-27 -17 -26 -44 1 -19 19 -22 19 -37 5 -16 -13 -20 -12 -42 11 l-25 26 -9 -26
-10 -27 -27 33 c-22 26 -30 30 -40 20 -15 -15 -33 -17 -25 -4 8 12 -21 34 -34
26 -5 -3 -10 -15 -10 -26 0 -29 -17 -23 -35 12 -16 29 -17 30 -35 14 -17 -15
-19 -15 -28 1 -11 19 -63 26 -74 10 -5 -7 -13 -2 -24 12 -15 21 -17 22 -33 8
-16 -15 -19 -14 -30 10 -9 21 -14 24 -25 14 -11 -9 -16 -7 -21 9 -3 11 -12 20
-18 18 -7 -1 -11 6 -11 15 2 22 -35 35 -47 17 -6 -10 -11 -11 -16 -3 -8 11
-66 44 -79 44 -3 0 -3 -10 0 -22z m154 -130 c-2 -6 -10 -14 -16 -16 -7 -2 -10
2 -6 12 7 18 28 22 22 4z m-58 -119 c0 -5 -7 -9 -15 -9 -15 0 -20 12 -9 23 8
8 24 -1 24 -14z"/>
<path d="M2260 303 c0 -23 5 -33 15 -33 18 0 18 1 0 36 l-15 29 0 -32z"/>
<path d="M2320 328 c0 -11 30 -78 36 -78 8 0 -6 42 -22 65 -8 11 -14 17 -14
13z"/>
<path d="M2693 256 c1 -40 6 -61 16 -64 15 -5 13 17 -8 88 -9 32 -9 30 -8 -24z"/>
<path d="M2380 295 c0 -5 5 -17 10 -25 5 -8 10 -10 10 -5 0 6 -5 17 -10 25 -5
8 -10 11 -10 5z"/>
<path d="M2531 255 c0 -11 4 -27 9 -35 9 -13 10 -13 9 0 0 8 -4 24 -9 35 l-9
20 0 -20z"/>
<path d="M3260 170 c0 -6 7 -10 15 -10 8 0 15 2 15 4 0 2 -7 6 -15 10 -8 3
-15 1 -15 -4z"/>
<path d="M3725 160 c3 -5 8 -10 11 -10 2 0 4 5 4 10 0 6 -5 10 -11 10 -5 0 -7
-4 -4 -10z"/>
<path d="M3568 72 c-23 -5 -24 -24 -1 -20 11 2 19 -6 23 -21 3 -14 11 -26 18
-29 16 -5 15 9 -2 33 -7 11 -14 24 -14 28 0 12 -5 14 -24 9z"/>
<path d="M3500 49 c0 -5 5 -7 10 -4 6 3 10 8 10 11 0 2 -4 4 -10 4 -5 0 -10
-5 -10 -11z"/>
<path d="M3950 20 c0 -13 5 -20 13 -18 6 3 12 11 12 18 0 7 -6 15 -12 18 -8 2
-13 -5 -13 -18z"/>
<path d="M3768 13 c6 -2 18 -2 25 0 6 3 1 5 -13 5 -14 0 -19 -2 -12 -5z"/>
</g>
</svg>
